<?xml version="1.0" encoding="UTF-8"?>
<svg xmlns="http://www.w3.org/2000/svg" xmlns:xlink="http://www.w3.org/1999/xlink" width="1612.13" height="863.3400000000001"><defs/><rect width="100%" height="100%" fill="#FFFFFF"/><g transform="scale(1.33) translate(574,354)" style="fill:none;"><g transform="translate(-58,-137)"><path d="M207,56Q207,49 280,49" stroke="#707070" stroke-width="1" stroke-linecap="round"/></g><g transform="translate(-237,-137)"><path d="M189,56L157,56" stroke="#707070" stroke-width="1" stroke-linecap="round"/></g><g transform="translate(-396,-327)"><path d="M238,246Q238,-24 139,18" stroke="#707070" stroke-width="1" stroke-linecap="round"/></g><g transform="translate(-415,-272)"><path d="M257,191Q257,-23.80000000000001 158,29" stroke="#707070" stroke-width="1" stroke-linecap="round"/></g><g transform="translate(-406,-103)"><path d="M179,22Q179,37 149,37" stroke="#707070" stroke-width="1" stroke-linecap="round"/></g><g transform="translate(-477,-194)"><path d="M146,128Q146,-24 51,18" stroke="#707070" stroke-width="1" stroke-linecap="round"/></g><g transform="translate(-536,-139)"><path d="M205,73Q205,-23.25 110,18" stroke="#707070" stroke-width="1" stroke-linecap="round"/></g><g transform="translate(-473,-86)"><path d="M77,20L47,20" stroke="#707070" stroke-width="1" stroke-linecap="round"/></g><g transform="translate(-506,-86)"><path d="M175,20Q175,116.25 80,75" stroke="#707070" stroke-width="1" stroke-linecap="round"/></g><g transform="translate(-518,-86)"><path d="M187,20Q187,172 92,130" stroke="#707070" stroke-width="1" stroke-linecap="round"/></g><g transform="translate(222,-274)"><path d="M68,186Q68,-26.80000000000001 155,20" stroke="#707070" stroke-width="1" stroke-linecap="round"/></g><g transform="translate(222,-110)"><path d="M125,22Q125,43 161,43" stroke="#707070" stroke-width="1" stroke-linecap="round"/></g><g transform="translate(222,-110)"><path d="M68,22Q68,199 155,157" stroke="#707070" stroke-width="1" stroke-linecap="round"/></g><g transform="translate(377,-18)"><path d="M65,65Q65,-21 150,15" stroke="#707070" stroke-width="1" stroke-linecap="round"/></g><g transform="translate(377,29)"><path d="M120,18L150,18" stroke="#707070" stroke-width="1" stroke-linecap="round"/></g><g transform="translate(377,29)"><path d="M65,18Q65,104 150,68" stroke="#707070" stroke-width="1" stroke-linecap="round"/></g><g transform="translate(-410,-103)"><path d="M252,22Q252,316 153,274" stroke="#707070" stroke-width="1" stroke-linecap="round"/></g><g transform="translate(-510,103)"><path d="M177,68Q177,-19.5 80,18" stroke="#707070" stroke-width="1" stroke-linecap="round"/></g><g transform="translate(-547,153)"><path d="M147,18Q147,20 117,20" stroke="#707070" stroke-width="1" stroke-linecap="round"/></g><g transform="translate(-533,153)"><path d="M200,18Q200,106 103,70" stroke="#707070" stroke-width="1" stroke-linecap="round"/></g><g transform="translate(222,-110)"><path d="M68,22Q68,352 155,310" stroke="#707070" stroke-width="1" stroke-linecap="round"/></g><g transform="translate(377,132)"><path d="M77,68Q77,-19.5 173,18" stroke="#707070" stroke-width="1" stroke-linecap="round"/></g><g transform="translate(377,182)"><path d="M143,18Q143,20 173,20" stroke="#707070" stroke-width="1" stroke-linecap="round"/></g><g transform="translate(377,182)"><path d="M77,18Q77,106 173,70" stroke="#707070" stroke-width="1" stroke-linecap="round"/></g><g transform="translate(-58,-137)"><rect x="0" y="0" width="217" height="112" border="1" rx="10" ry="10" style="fill:#FF6600;stroke:#707070;stroke-width:1px;"/><g transform="translate (6 6) scale(0.01611328125)" style="fill:#800000;"><g transform="translate(10.71212121212102 2048) scale (1 -1)"><path d="M940 332Q940 160 820.5 70Q701 -20 463 -20Q341 -20 255 -3.5Q169 13 94 45L94 297Q179 257 285.5 230Q392 203 473 203Q639 203 639 299Q639 335 617 357.5Q595 380 541 408.5Q487 437 397 475Q268 529 207.5 575Q147 621 119.5 680.5Q92 740 92 827Q92 976 207.5 1057.5Q323 1139 535 1139Q737 1139 928 1051L836 831Q752 867 679 890Q606 913 530 913Q395 913 395 840Q395 799 438.5 769Q482 739 629 680Q760 627 821 581Q882 535 911 475Q940 415 940 332Z"/></g><g transform="translate(1028.712121212121 2048) scale (1 -1)"><path d="M403 561Q403 395 457.5 310Q512 225 635 225Q757 225 810.5 309.5Q864 394 864 561Q864 727 810 810Q756 893 633 893Q511 893 457 810.5Q403 728 403 561ZM1176 561Q1176 288 1032 134Q888 -20 631 -20Q470 -20 347 50.5Q224 121 158 253Q92 385 92 561Q92 835 235 987Q378 1139 637 1139Q798 1139 921 1069Q1044 999 1110 868Q1176 737 1176 561Z"/></g><g transform="translate(2296.712121212121 2048) scale (1 -1)"><path d="M778 889L514 889L514 0L209 0L209 889L41 889L41 1036L209 1118L209 1200Q209 1391 303 1479Q397 1567 604 1567Q762 1567 885 1520L807 1296Q715 1325 637 1325Q572 1325 543 1286.5Q514 1248 514 1188L514 1118L778 1118Z"/></g><g transform="translate(3089.712121212121 2048) scale (1 -1)"><path d="M631 223Q711 223 823 258L823 31Q709 -20 543 -20Q360 -20 276.5 72.5Q193 165 193 350L193 889L47 889L47 1018L215 1120L303 1356L498 1356L498 1118L811 1118L811 889L498 889L498 350Q498 285 534.5 254Q571 223 631 223Z"/></g><g transform="translate(3978.712121212121 2048) scale (1 -1)"><path d="M1079 0L993 391L879 885L870 885L666 0L338 0L20 1118L324 1118L453 623Q475 535 514 256L522 256Q526 332 557 497L573 582L711 1118L1047 1118L1178 582Q1190 527 1207.5 420.5Q1225 314 1227 256L1235 256Q1246 345 1266 458.5Q1286 572 1300 623L1434 1118L1733 1118L1411 0Z"/></g><g transform="translate(5731.712121212121 2048) scale (1 -1)"><path d="M870 0L811 152L803 152Q726 55 644.5 17.5Q563 -20 432 -20Q271 -20 178.5 72Q86 164 86 334Q86 512 210.5 596.5Q335 681 586 690L780 696L780 745Q780 915 606 915Q472 915 291 834L190 1040Q383 1141 618 1141Q843 1141 963 1043Q1083 945 1083 745L1083 0ZM780 518L662 514Q529 510 464 466Q399 422 399 332Q399 203 547 203Q653 203 716.5 264Q780 325 780 426Z"/></g><g transform="translate(6968.712121212121 2048) scale (1 -1)"><path d="M784 1139Q846 1139 887 1130L864 844Q827 854 774 854Q628 854 546.5 779Q465 704 465 569L465 0L160 0L160 1118L391 1118L436 930L451 930Q503 1024 591.5 1081.5Q680 1139 784 1139Z"/></g><g transform="translate(7898.712121212121 2048) scale (1 -1)"><path d="M623 922Q526 922 471 860.5Q416 799 408 686L836 686Q834 799 777 860.5Q720 922 623 922ZM666 -20Q396 -20 244 129Q92 278 92 551Q92 832 232.5 985.5Q373 1139 621 1139Q858 1139 990 1004Q1122 869 1122 631L1122 483L401 483Q406 353 478 280Q550 207 680 207Q781 207 871 228Q961 249 1059 295L1059 59Q979 19 888 -0.5Q797 -20 666 -20Z"/></g><g transform="translate(9108.71212121212 2048) scale (1 -1)"><path d="M403 561Q403 395 457.5 310Q512 225 635 225Q757 225 810.5 309.5Q864 394 864 561Q864 727 810 810Q756 893 633 893Q511 893 457 810.5Q403 728 403 561ZM1176 561Q1176 288 1032 134Q888 -20 631 -20Q470 -20 347 50.5Q224 121 158 253Q92 385 92 561Q92 835 235 987Q378 1139 637 1139Q798 1139 921 1069Q1044 999 1110 868Q1176 737 1176 561Z"/></g><g transform="translate(10376.71212121212 2048) scale (1 -1)"><path d="M426 0L0 1118L319 1118L535 481Q568 377 578 252L586 252Q592 365 631 481L846 1118L1165 1118L739 0Z"/></g><g transform="translate(11541.71212121212 2048) scale (1 -1)"><path d="M623 922Q526 922 471 860.5Q416 799 408 686L836 686Q834 799 777 860.5Q720 922 623 922ZM666 -20Q396 -20 244 129Q92 278 92 551Q92 832 232.5 985.5Q373 1139 621 1139Q858 1139 990 1004Q1122 869 1122 631L1122 483L401 483Q406 353 478 280Q550 207 680 207Q781 207 871 228Q961 249 1059 295L1059 59Q979 19 888 -0.5Q797 -20 666 -20ZM447 1241L447 1268Q619 1468 682 1569L1024 1569L1024 1548Q972 1496 846.5 1393.5Q721 1291 650 1241Z"/></g><g transform="translate(2800.212121212121 5151.030303030303) scale (1 -1)"><path d="M465 0L160 0L160 1556L465 1556Z"/></g><g transform="translate(3425.212121212121 5151.030303030303) scale (1 -1)"><path d="M147 1407Q147 1556 313 1556Q479 1556 479 1407Q479 1336 437.5 1296.5Q396 1257 313 1257Q147 1257 147 1407ZM465 0L160 0L160 1118L465 1118Z"/></g><g transform="translate(4050.212121212121 5151.030303030303) scale (1 -1)"><path d="M614 -20Q92 -20 92 553Q92 838 234 988.5Q376 1139 641 1139Q835 1139 989 1063L899 827Q827 856 765 874.5Q703 893 641 893Q403 893 403 555Q403 227 641 227Q729 227 804 250.5Q879 274 954 324L954 63Q880 16 804.5 -2Q729 -20 614 -20Z"/></g><g transform="translate(5103.212121212121 5151.030303030303) scale (1 -1)"><path d="M623 922Q526 922 471 860.5Q416 799 408 686L836 686Q834 799 777 860.5Q720 922 623 922ZM666 -20Q396 -20 244 129Q92 278 92 551Q92 832 232.5 985.5Q373 1139 621 1139Q858 1139 990 1004Q1122 869 1122 631L1122 483L401 483Q406 353 478 280Q550 207 680 207Q781 207 871 228Q961 249 1059 295L1059 59Q979 19 888 -0.5Q797 -20 666 -20Z"/></g><g transform="translate(6313.212121212121 5151.030303030303) scale (1 -1)"><path d="M1192 0L887 0L887 653Q887 774 844 834.5Q801 895 707 895Q579 895 522 809.5Q465 724 465 526L465 0L160 0L160 1118L393 1118L434 975L451 975Q502 1056 591.5 1097.5Q681 1139 795 1139Q990 1139 1091 1033.5Q1192 928 1192 729Z"/></g><g transform="translate(7659.212121212121 5151.030303030303) scale (1 -1)"><path d="M614 -20Q92 -20 92 553Q92 838 234 988.5Q376 1139 641 1139Q835 1139 989 1063L899 827Q827 856 765 874.5Q703 893 641 893Q403 893 403 555Q403 227 641 227Q729 227 804 250.5Q879 274 954 324L954 63Q880 16 804.5 -2Q729 -20 614 -20Z"/></g><g transform="translate(8712.21212121212 5151.030303030303) scale (1 -1)"><path d="M623 922Q526 922 471 860.5Q416 799 408 686L836 686Q834 799 777 860.5Q720 922 623 922ZM666 -20Q396 -20 244 129Q92 278 92 551Q92 832 232.5 985.5Q373 1139 621 1139Q858 1139 990 1004Q1122 869 1122 631L1122 483L401 483Q406 353 478 280Q550 207 680 207Q781 207 871 228Q961 249 1059 295L1059 59Q979 19 888 -0.5Q797 -20 666 -20Z"/></g></g></g><g transform="translate(222,-110)"><rect x="0" y="0" width="135" height="44" border="1" rx="10" ry="10" style="fill:#008080;stroke:#707070;stroke-width:1px;"/><g transform="translate (6 6) scale(0.01025390625)" style="fill:#CCFFFF;"><g transform="translate(35.214285714285325 2048) scale (1 -1)"><path d="M403 561Q403 395 457.5 310Q512 225 635 225Q757 225 810.5 309.5Q864 394 864 561Q864 727 810 810Q756 893 633 893Q511 893 457 810.5Q403 728 403 561ZM1176 561Q1176 288 1032 134Q888 -20 631 -20Q470 -20 347 50.5Q224 121 158 253Q92 385 92 561Q92 835 235 987Q378 1139 637 1139Q798 1139 921 1069Q1044 999 1110 868Q1176 737 1176 561Z"/></g><g transform="translate(1303.2142857142853 2048) scale (1 -1)"><path d="M774 -20Q577 -20 465 123L449 123Q465 -17 465 -39L465 -492L160 -492L160 1118L408 1118L451 973L465 973Q572 1139 782 1139Q980 1139 1092 986Q1204 833 1204 561Q1204 382 1151.5 250Q1099 118 1002 49Q905 -20 774 -20ZM684 895Q571 895 519 825.5Q467 756 465 596L465 563Q465 383 518.5 305Q572 227 688 227Q893 227 893 565Q893 730 842.5 812.5Q792 895 684 895Z"/></g><g transform="translate(2599.2142857142853 2048) scale (1 -1)"><path d="M623 922Q526 922 471 860.5Q416 799 408 686L836 686Q834 799 777 860.5Q720 922 623 922ZM666 -20Q396 -20 244 129Q92 278 92 551Q92 832 232.5 985.5Q373 1139 621 1139Q858 1139 990 1004Q1122 869 1122 631L1122 483L401 483Q406 353 478 280Q550 207 680 207Q781 207 871 228Q961 249 1059 295L1059 59Q979 19 888 -0.5Q797 -20 666 -20Z"/></g><g transform="translate(3809.2142857142853 2048) scale (1 -1)"><path d="M1192 0L887 0L887 653Q887 774 844 834.5Q801 895 707 895Q579 895 522 809.5Q465 724 465 526L465 0L160 0L160 1118L393 1118L434 975L451 975Q502 1056 591.5 1097.5Q681 1139 795 1139Q990 1139 1091 1033.5Q1192 928 1192 729Z"/></g><g transform="translate(5155.214285714285 2048) scale (1 -1)"><path d="M940 332Q940 160 820.5 70Q701 -20 463 -20Q341 -20 255 -3.5Q169 13 94 45L94 297Q179 257 285.5 230Q392 203 473 203Q639 203 639 299Q639 335 617 357.5Q595 380 541 408.5Q487 437 397 475Q268 529 207.5 575Q147 621 119.5 680.5Q92 740 92 827Q92 976 207.5 1057.5Q323 1139 535 1139Q737 1139 928 1051L836 831Q752 867 679 890Q606 913 530 913Q395 913 395 840Q395 799 438.5 769Q482 739 629 680Q760 627 821 581Q882 535 911 475Q940 415 940 332Z"/></g><g transform="translate(6173.214285714285 2048) scale (1 -1)"><path d="M403 561Q403 395 457.5 310Q512 225 635 225Q757 225 810.5 309.5Q864 394 864 561Q864 727 810 810Q756 893 633 893Q511 893 457 810.5Q403 728 403 561ZM1176 561Q1176 288 1032 134Q888 -20 631 -20Q470 -20 347 50.5Q224 121 158 253Q92 385 92 561Q92 835 235 987Q378 1139 637 1139Q798 1139 921 1069Q1044 999 1110 868Q1176 737 1176 561Z"/></g><g transform="translate(7441.214285714285 2048) scale (1 -1)"><path d="M952 0L911 143L895 143Q846 65 756 22.5Q666 -20 551 -20Q354 -20 254 85.5Q154 191 154 389L154 1118L459 1118L459 465Q459 344 502 283.5Q545 223 639 223Q767 223 824 308.5Q881 394 881 592L881 1118L1186 1118L1186 0Z"/></g><g transform="translate(8787.214285714286 2048) scale (1 -1)"><path d="M784 1139Q846 1139 887 1130L864 844Q827 854 774 854Q628 854 546.5 779Q465 704 465 569L465 0L160 0L160 1118L391 1118L436 930L451 930Q503 1024 591.5 1081.5Q680 1139 784 1139Z"/></g><g transform="translate(9717.214285714286 2048) scale (1 -1)"><path d="M614 -20Q92 -20 92 553Q92 838 234 988.5Q376 1139 641 1139Q835 1139 989 1063L899 827Q827 856 765 874.5Q703 893 641 893Q403 893 403 555Q403 227 641 227Q729 227 804 250.5Q879 274 954 324L954 63Q880 16 804.5 -2Q729 -20 614 -20Z"/></g><g transform="translate(10770.214285714286 2048) scale (1 -1)"><path d="M623 922Q526 922 471 860.5Q416 799 408 686L836 686Q834 799 777 860.5Q720 922 623 922ZM666 -20Q396 -20 244 129Q92 278 92 551Q92 832 232.5 985.5Q373 1139 621 1139Q858 1139 990 1004Q1122 869 1122 631L1122 483L401 483Q406 353 478 280Q550 207 680 207Q781 207 871 228Q961 249 1059 295L1059 59Q979 19 888 -0.5Q797 -20 666 -20Z"/></g></g></g><g transform="translate(-237,-103)"><rect x="0" y="0" width="157" height="44" border="1" rx="10" ry="10" style="fill:#800080;stroke:#707070;stroke-width:1px;"/><g transform="translate (6 6) scale(0.01025390625)" style="fill:#FFFFFF;"><g transform="translate(40.97619047619082 2048) scale (1 -1)"><path d="M805 1225Q630 1225 534 1093.5Q438 962 438 727Q438 238 805 238Q959 238 1178 315L1178 55Q998 -20 776 -20Q457 -20 288 173.5Q119 367 119 729Q119 957 202 1128.5Q285 1300 440.5 1391.5Q596 1483 805 1483Q1018 1483 1233 1380L1133 1128Q1051 1167 968 1196Q885 1225 805 1225Z"/></g><g transform="translate(1345.9761904761908 2048) scale (1 -1)"><path d="M465 0L160 0L160 1556L465 1556Z"/></g><g transform="translate(1970.9761904761908 2048) scale (1 -1)"><path d="M403 561Q403 395 457.5 310Q512 225 635 225Q757 225 810.5 309.5Q864 394 864 561Q864 727 810 810Q756 893 633 893Q511 893 457 810.5Q403 728 403 561ZM1176 561Q1176 288 1032 134Q888 -20 631 -20Q470 -20 347 50.5Q224 121 158 253Q92 385 92 561Q92 835 235 987Q378 1139 637 1139Q798 1139 921 1069Q1044 999 1110 868Q1176 737 1176 561Z"/></g><g transform="translate(3238.976190476191 2048) scale (1 -1)"><path d="M940 332Q940 160 820.5 70Q701 -20 463 -20Q341 -20 255 -3.5Q169 13 94 45L94 297Q179 257 285.5 230Q392 203 473 203Q639 203 639 299Q639 335 617 357.5Q595 380 541 408.5Q487 437 397 475Q268 529 207.5 575Q147 621 119.5 680.5Q92 740 92 827Q92 976 207.5 1057.5Q323 1139 535 1139Q737 1139 928 1051L836 831Q752 867 679 890Q606 913 530 913Q395 913 395 840Q395 799 438.5 769Q482 739 629 680Q760 627 821 581Q882 535 911 475Q940 415 940 332Z"/></g><g transform="translate(4256.976190476191 2048) scale (1 -1)"><path d="M623 922Q526 922 471 860.5Q416 799 408 686L836 686Q834 799 777 860.5Q720 922 623 922ZM666 -20Q396 -20 244 129Q92 278 92 551Q92 832 232.5 985.5Q373 1139 621 1139Q858 1139 990 1004Q1122 869 1122 631L1122 483L401 483Q406 353 478 280Q550 207 680 207Q781 207 871 228Q961 249 1059 295L1059 59Q979 19 888 -0.5Q797 -20 666 -20Z"/></g><g transform="translate(5466.976190476191 2048) scale (1 -1)"><path d="M514 -20Q317 -20 204.5 133Q92 286 92 557Q92 832 206.5 985.5Q321 1139 522 1139Q733 1139 844 975L854 975Q831 1100 831 1198L831 1556L1137 1556L1137 0L903 0L844 145L831 145Q727 -20 514 -20ZM621 223Q738 223 792.5 291Q847 359 852 522L852 555Q852 735 796.5 813Q741 891 616 891Q514 891 457.5 804.5Q401 718 401 553Q401 388 458 305.5Q515 223 621 223Z"/></g><g transform="translate(7294.976190476191 2048) scale (1 -1)"><path d="M940 332Q940 160 820.5 70Q701 -20 463 -20Q341 -20 255 -3.5Q169 13 94 45L94 297Q179 257 285.5 230Q392 203 473 203Q639 203 639 299Q639 335 617 357.5Q595 380 541 408.5Q487 437 397 475Q268 529 207.5 575Q147 621 119.5 680.5Q92 740 92 827Q92 976 207.5 1057.5Q323 1139 535 1139Q737 1139 928 1051L836 831Q752 867 679 890Q606 913 530 913Q395 913 395 840Q395 799 438.5 769Q482 739 629 680Q760 627 821 581Q882 535 911 475Q940 415 940 332Z"/></g><g transform="translate(8312.97619047619 2048) scale (1 -1)"><path d="M403 561Q403 395 457.5 310Q512 225 635 225Q757 225 810.5 309.5Q864 394 864 561Q864 727 810 810Q756 893 633 893Q511 893 457 810.5Q403 728 403 561ZM1176 561Q1176 288 1032 134Q888 -20 631 -20Q470 -20 347 50.5Q224 121 158 253Q92 385 92 561Q92 835 235 987Q378 1139 637 1139Q798 1139 921 1069Q1044 999 1110 868Q1176 737 1176 561Z"/></g><g transform="translate(9580.97619047619 2048) scale (1 -1)"><path d="M952 0L911 143L895 143Q846 65 756 22.5Q666 -20 551 -20Q354 -20 254 85.5Q154 191 154 389L154 1118L459 1118L459 465Q459 344 502 283.5Q545 223 639 223Q767 223 824 308.5Q881 394 881 592L881 1118L1186 1118L1186 0Z"/></g><g transform="translate(10926.97619047619 2048) scale (1 -1)"><path d="M784 1139Q846 1139 887 1130L864 844Q827 854 774 854Q628 854 546.5 779Q465 704 465 569L465 0L160 0L160 1118L391 1118L436 930L451 930Q503 1024 591.5 1081.5Q680 1139 784 1139Z"/></g><g transform="translate(11856.97619047619 2048) scale (1 -1)"><path d="M614 -20Q92 -20 92 553Q92 838 234 988.5Q376 1139 641 1139Q835 1139 989 1063L899 827Q827 856 765 874.5Q703 893 641 893Q403 893 403 555Q403 227 641 227Q729 227 804 250.5Q879 274 954 324L954 63Q880 16 804.5 -2Q729 -20 614 -20Z"/></g><g transform="translate(12909.97619047619 2048) scale (1 -1)"><path d="M623 922Q526 922 471 860.5Q416 799 408 686L836 686Q834 799 777 860.5Q720 922 623 922ZM666 -20Q396 -20 244 129Q92 278 92 551Q92 832 232.5 985.5Q373 1139 621 1139Q858 1139 990 1004Q1122 869 1122 631L1122 483L401 483Q406 353 478 280Q550 207 680 207Q781 207 871 228Q961 249 1059 295L1059 59Q979 19 888 -0.5Q797 -20 666 -20Z"/></g></g></g><g transform="translate(-396,-327)"><rect x="0" y="0" width="139" height="35" border="1" rx="10" ry="10" style="fill:#E0E0E0;stroke:#707070;stroke-width:1px;"/><g transform="translate (6 6) scale(0.00732421875)" style="fill:#4F4F4F;"><g transform="translate(4.366666666666788 2048) scale (1 -1)"><path d="M426 0L0 1118L319 1118L535 481Q568 377 578 252L586 252Q592 365 631 481L846 1118L1165 1118L739 0Z"/></g><g transform="translate(1169.3666666666668 2048) scale (1 -1)"><path d="M623 922Q526 922 471 860.5Q416 799 408 686L836 686Q834 799 777 860.5Q720 922 623 922ZM666 -20Q396 -20 244 129Q92 278 92 551Q92 832 232.5 985.5Q373 1139 621 1139Q858 1139 990 1004Q1122 869 1122 631L1122 483L401 483Q406 353 478 280Q550 207 680 207Q781 207 871 228Q961 249 1059 295L1059 59Q979 19 888 -0.5Q797 -20 666 -20ZM1057 1569L1057 1542Q973 1458 902.5 1374.5Q832 1291 801 1241L444 1241Q415 1288 361 1353.5Q307 1419 188 1542L188 1569L391 1569Q538 1476 620 1393Q704 1480 854 1569Z"/></g><g transform="translate(2379.366666666667 2048) scale (1 -1)"><path d="M631 223Q711 223 823 258L823 31Q709 -20 543 -20Q360 -20 276.5 72.5Q193 165 193 350L193 889L47 889L47 1018L215 1120L303 1356L498 1356L498 1118L811 1118L811 889L498 889L498 350Q498 285 534.5 254Q571 223 631 223Z"/></g><g transform="translate(3268.366666666667 2048) scale (1 -1)"><path d="M940 332Q940 160 820.5 70Q701 -20 463 -20Q341 -20 255 -3.5Q169 13 94 45L94 297Q179 257 285.5 230Q392 203 473 203Q639 203 639 299Q639 335 617 357.5Q595 380 541 408.5Q487 437 397 475Q268 529 207.5 575Q147 621 119.5 680.5Q92 740 92 827Q92 976 207.5 1057.5Q323 1139 535 1139Q737 1139 928 1051L836 831Q752 867 679 890Q606 913 530 913Q395 913 395 840Q395 799 438.5 769Q482 739 629 680Q760 627 821 581Q882 535 911 475Q940 415 940 332ZM972 1569L972 1542Q888 1458 817.5 1374.5Q747 1291 716 1241L359 1241Q330 1288 276 1353.5Q222 1419 103 1542L103 1569L306 1569Q453 1476 535 1393Q619 1480 769 1569Z"/></g><g transform="translate(4286.366666666667 2048) scale (1 -1)"><path d="M147 1407Q147 1556 313 1556Q479 1556 479 1407Q479 1336 437.5 1296.5Q396 1257 313 1257Q147 1257 147 1407ZM465 0L160 0L160 1118L465 1118Z"/></g><g transform="translate(4911.366666666667 2048) scale (1 -1)"><path d="M1192 0L887 0L887 653Q887 774 844 834.5Q801 895 707 895Q579 895 522 809.5Q465 724 465 526L465 0L160 0L160 1118L393 1118L434 975L451 975Q502 1056 591.5 1097.5Q681 1139 795 1139Q990 1139 1091 1033.5Q1192 928 1192 729Z"/></g><g transform="translate(6257.366666666667 2048) scale (1 -1)"><path d="M403 561Q403 395 457.5 310Q512 225 635 225Q757 225 810.5 309.5Q864 394 864 561Q864 727 810 810Q756 893 633 893Q511 893 457 810.5Q403 728 403 561ZM1176 561Q1176 288 1032 134Q888 -20 631 -20Q470 -20 347 50.5Q224 121 158 253Q92 385 92 561Q92 835 235 987Q378 1139 637 1139Q798 1139 921 1069Q1044 999 1110 868Q1176 737 1176 561Z"/></g><g transform="translate(7525.366666666667 2048) scale (1 -1)"><path d="M952 0L911 143L895 143Q846 65 756 22.5Q666 -20 551 -20Q354 -20 254 85.5Q154 191 154 389L154 1118L459 1118L459 465Q459 344 502 283.5Q545 223 639 223Q767 223 824 308.5Q881 394 881 592L881 1118L1186 1118L1186 0Z"/></g><g transform="translate(9403.366666666667 2048) scale (1 -1)"><path d="M774 -20Q577 -20 465 123L449 123Q465 -17 465 -39L465 -492L160 -492L160 1118L408 1118L451 973L465 973Q572 1139 782 1139Q980 1139 1092 986Q1204 833 1204 561Q1204 382 1151.5 250Q1099 118 1002 49Q905 -20 774 -20ZM684 895Q571 895 519 825.5Q467 756 465 596L465 563Q465 383 518.5 305Q572 227 688 227Q893 227 893 565Q893 730 842.5 812.5Q792 895 684 895Z"/></g><g transform="translate(10699.366666666667 2048) scale (1 -1)"><path d="M465 0L160 0L160 1556L465 1556Z"/></g><g transform="translate(11324.366666666667 2048) scale (1 -1)"><path d="M870 0L811 152L803 152Q726 55 644.5 17.5Q563 -20 432 -20Q271 -20 178.5 72Q86 164 86 334Q86 512 210.5 596.5Q335 681 586 690L780 696L780 745Q780 915 606 915Q472 915 291 834L190 1040Q383 1141 618 1141Q843 1141 963 1043Q1083 945 1083 745L1083 0ZM780 518L662 514Q529 510 464 466Q399 422 399 332Q399 203 547 203Q653 203 716.5 264Q780 325 780 426Z"/></g><g transform="translate(12561.366666666667 2048) scale (1 -1)"><path d="M614 -20Q92 -20 92 553Q92 838 234 988.5Q376 1139 641 1139Q835 1139 989 1063L899 827Q827 856 765 874.5Q703 893 641 893Q403 893 403 555Q403 227 641 227Q729 227 804 250.5Q879 274 954 324L954 63Q880 16 804.5 -2Q729 -20 614 -20Z"/></g><g transform="translate(13614.366666666667 2048) scale (1 -1)"><path d="M623 922Q526 922 471 860.5Q416 799 408 686L836 686Q834 799 777 860.5Q720 922 623 922ZM666 -20Q396 -20 244 129Q92 278 92 551Q92 832 232.5 985.5Q373 1139 621 1139Q858 1139 990 1004Q1122 869 1122 631L1122 483L401 483Q406 353 478 280Q550 207 680 207Q781 207 871 228Q961 249 1059 295L1059 59Q979 19 888 -0.5Q797 -20 666 -20Z"/></g><g transform="translate(14824.366666666667 2048) scale (1 -1)"><path d="M1192 0L887 0L887 653Q887 774 844 834.5Q801 895 707 895Q579 895 522 809.5Q465 724 465 526L465 0L160 0L160 1118L393 1118L434 975L451 975Q502 1056 591.5 1097.5Q681 1139 795 1139Q990 1139 1091 1033.5Q1192 928 1192 729Z"/></g><g transform="translate(16170.366666666667 2048) scale (1 -1)"><path d="M0 1118L334 1118L545 489Q572 407 582 295L588 295Q599 398 631 489L838 1118L1165 1118L692 -143Q627 -318 506.5 -405Q386 -492 225 -492Q146 -492 70 -475L70 -233Q125 -246 190 -246Q271 -246 331.5 -196.5Q392 -147 426 -47L444 8ZM393 1241L393 1268Q565 1468 628 1569L970 1569L970 1548Q918 1496 792.5 1393.5Q667 1291 596 1241Z"/></g></g></g><g transform="translate(-415,-272)"><rect x="0" y="0" width="158" height="58" border="1" rx="10" ry="10" style="fill:#E0E0E0;stroke:#707070;stroke-width:1px;"/><g transform="translate (6 6) scale(0.00732421875)" style="fill:#4F4F4F;"><g transform="translate(673.9333333333325 2048) scale (1 -1)"><path d="M952 0L911 143L895 143Q846 65 756 22.5Q666 -20 551 -20Q354 -20 254 85.5Q154 191 154 389L154 1118L459 1118L459 465Q459 344 502 283.5Q545 223 639 223Q767 223 824 308.5Q881 394 881 592L881 1118L1186 1118L1186 0Z"/></g><g transform="translate(2019.9333333333325 2048) scale (1 -1)"><path d="M938 0L55 0L55 180L573 885L86 885L86 1118L920 1118L920 920L416 233L938 233Z"/></g><g transform="translate(3018.9333333333325 2048) scale (1 -1)"><path d="M870 0L811 152L803 152Q726 55 644.5 17.5Q563 -20 432 -20Q271 -20 178.5 72Q86 164 86 334Q86 512 210.5 596.5Q335 681 586 690L780 696L780 745Q780 915 606 915Q472 915 291 834L190 1040Q383 1141 618 1141Q843 1141 963 1043Q1083 945 1083 745L1083 0ZM780 518L662 514Q529 510 464 466Q399 422 399 332Q399 203 547 203Q653 203 716.5 264Q780 325 780 426Z"/></g><g transform="translate(4255.9333333333325 2048) scale (1 -1)"><path d="M426 0L0 1118L319 1118L535 481Q568 377 578 252L586 252Q592 365 631 481L846 1118L1165 1118L739 0Z"/></g><g transform="translate(5420.9333333333325 2048) scale (1 -1)"><path d="M784 1139Q846 1139 887 1130L864 844Q827 854 774 854Q628 854 546.5 779Q465 704 465 569L465 0L160 0L160 1118L391 1118L436 930L451 930Q503 1024 591.5 1081.5Q680 1139 784 1139ZM952 1569L952 1542Q868 1458 797.5 1374.5Q727 1291 696 1241L339 1241Q310 1288 256 1353.5Q202 1419 83 1542L83 1569L286 1569Q433 1476 515 1393Q599 1480 749 1569Z"/></g><g transform="translate(6350.9333333333325 2048) scale (1 -1)"><path d="M623 922Q526 922 471 860.5Q416 799 408 686L836 686Q834 799 777 860.5Q720 922 623 922ZM666 -20Q396 -20 244 129Q92 278 92 551Q92 832 232.5 985.5Q373 1139 621 1139Q858 1139 990 1004Q1122 869 1122 631L1122 483L401 483Q406 353 478 280Q550 207 680 207Q781 207 871 228Q961 249 1059 295L1059 59Q979 19 888 -0.5Q797 -20 666 -20Z"/></g><g transform="translate(7560.9333333333325 2048) scale (1 -1)"><path d="M1192 0L887 0L887 653Q887 774 844 834.5Q801 895 707 895Q579 895 522 809.5Q465 724 465 526L465 0L160 0L160 1118L393 1118L434 975L451 975Q502 1056 591.5 1097.5Q681 1139 795 1139Q990 1139 1091 1033.5Q1192 928 1192 729Z"/></g><g transform="translate(8906.933333333332 2048) scale (1 -1)"><path d="M0 1118L334 1118L545 489Q572 407 582 295L588 295Q599 398 631 489L838 1118L1165 1118L692 -143Q627 -318 506.5 -405Q386 -492 225 -492Q146 -492 70 -475L70 -233Q125 -246 190 -246Q271 -246 331.5 -196.5Q392 -147 426 -47L444 8ZM393 1241L393 1268Q565 1468 628 1569L970 1569L970 1548Q918 1496 792.5 1393.5Q667 1291 596 1241Z"/></g><g transform="translate(10603.933333333332 2048) scale (1 -1)"><path d="M938 0L55 0L55 180L573 885L86 885L86 1118L920 1118L920 920L416 233L938 233Z"/></g><g transform="translate(11602.933333333332 2048) scale (1 -1)"><path d="M514 -20Q317 -20 204.5 133Q92 286 92 557Q92 832 206.5 985.5Q321 1139 522 1139Q733 1139 844 975L854 975Q831 1100 831 1198L831 1556L1137 1556L1137 0L903 0L844 145L831 145Q727 -20 514 -20ZM621 223Q738 223 792.5 291Q847 359 852 522L852 555Q852 735 796.5 813Q741 891 616 891Q514 891 457.5 804.5Q401 718 401 553Q401 388 458 305.5Q515 223 621 223Z"/></g><g transform="translate(12898.933333333332 2048) scale (1 -1)"><path d="M784 1139Q846 1139 887 1130L864 844Q827 854 774 854Q628 854 546.5 779Q465 704 465 569L465 0L160 0L160 1118L391 1118L436 930L451 930Q503 1024 591.5 1081.5Q680 1139 784 1139Z"/></g><g transform="translate(13828.933333333332 2048) scale (1 -1)"><path d="M403 561Q403 395 457.5 310Q512 225 635 225Q757 225 810.5 309.5Q864 394 864 561Q864 727 810 810Q756 893 633 893Q511 893 457 810.5Q403 728 403 561ZM1176 561Q1176 288 1032 134Q888 -20 631 -20Q470 -20 347 50.5Q224 121 158 253Q92 385 92 561Q92 835 235 987Q378 1139 637 1139Q798 1139 921 1069Q1044 999 1110 868Q1176 737 1176 561Z"/></g><g transform="translate(15096.933333333332 2048) scale (1 -1)"><path d="M70 -492Q-47 -492 -131 -467L-131 -227Q-61 -246 12 -246Q89 -246 124.5 -203Q160 -160 160 -76L160 1118L465 1118L465 -121Q465 -299 362 -395.5Q259 -492 70 -492ZM147 1407Q147 1556 313 1556Q479 1556 479 1407Q479 1336 437.5 1296.5Q396 1257 313 1257Q147 1257 147 1407Z"/></g><g transform="translate(15721.933333333332 2048) scale (1 -1)"><path d="M403 561Q403 395 457.5 310Q512 225 635 225Q757 225 810.5 309.5Q864 394 864 561Q864 727 810 810Q756 893 633 893Q511 893 457 810.5Q403 728 403 561ZM1176 561Q1176 288 1032 134Q888 -20 631 -20Q470 -20 347 50.5Q224 121 158 253Q92 385 92 561Q92 835 235 987Q378 1139 637 1139Q798 1139 921 1069Q1044 999 1110 868Q1176 737 1176 561Z"/></g><g transform="translate(16989.933333333334 2048) scale (1 -1)"><path d="M426 0L0 1118L319 1118L535 481Q568 377 578 252L586 252Q592 365 631 481L846 1118L1165 1118L739 0Z"/></g><g transform="translate(18154.933333333334 2048) scale (1 -1)"><path d="M0 1118L334 1118L545 489Q572 407 582 295L588 295Q599 398 631 489L838 1118L1165 1118L692 -143Q627 -318 506.5 -405Q386 -492 225 -492Q146 -492 70 -475L70 -233Q125 -246 190 -246Q271 -246 331.5 -196.5Q392 -147 426 -47L444 8ZM393 1241L393 1268Q565 1468 628 1569L970 1569L970 1548Q918 1496 792.5 1393.5Q667 1291 596 1241Z"/></g><g transform="translate(8059.9333333333325 5188.266666666666) scale (1 -1)"><path d="M453 608L586 778L899 1118L1243 1118L799 633L1270 0L918 0L596 453L465 348L465 0L160 0L160 1556L465 1556L465 862L449 608Z"/></g><g transform="translate(9329.933333333332 5188.266666666666) scale (1 -1)"><path d="M403 561Q403 395 457.5 310Q512 225 635 225Q757 225 810.5 309.5Q864 394 864 561Q864 727 810 810Q756 893 633 893Q511 893 457 810.5Q403 728 403 561ZM1176 561Q1176 288 1032 134Q888 -20 631 -20Q470 -20 347 50.5Q224 121 158 253Q92 385 92 561Q92 835 235 987Q378 1139 637 1139Q798 1139 921 1069Q1044 999 1110 868Q1176 737 1176 561ZM467 1241L467 1268Q639 1468 702 1569L1044 1569L1044 1548Q992 1496 866.5 1393.5Q741 1291 670 1241Z"/></g><g transform="translate(10597.933333333332 5188.266666666666) scale (1 -1)"><path d="M514 -20Q317 -20 204.5 133Q92 286 92 557Q92 832 206.5 985.5Q321 1139 522 1139Q733 1139 844 975L854 975Q831 1100 831 1198L831 1556L1137 1556L1137 0L903 0L844 145L831 145Q727 -20 514 -20ZM621 223Q738 223 792.5 291Q847 359 852 522L852 555Q852 735 796.5 813Q741 891 616 891Q514 891 457.5 804.5Q401 718 401 553Q401 388 458 305.5Q515 223 621 223Z"/></g></g></g><g transform="translate(-406,-86)"><rect x="0" y="0" width="149" height="39" border="1" rx="10" ry="10" style="fill:#0000FF;stroke:#707070;stroke-width:1px;"/><g transform="translate (6 6) scale(0.0087890625)" style="fill:#FFFF00;"><g transform="translate(37.277777777777374 2048) scale (1 -1)"><path d="M774 -20Q577 -20 465 123L449 123Q465 -17 465 -39L465 -492L160 -492L160 1118L408 1118L451 973L465 973Q572 1139 782 1139Q980 1139 1092 986Q1204 833 1204 561Q1204 382 1151.5 250Q1099 118 1002 49Q905 -20 774 -20ZM684 895Q571 895 519 825.5Q467 756 465 596L465 563Q465 383 518.5 305Q572 227 688 227Q893 227 893 565Q893 730 842.5 812.5Q792 895 684 895Z"/></g><g transform="translate(1333.2777777777774 2048) scale (1 -1)"><path d="M784 1139Q846 1139 887 1130L864 844Q827 854 774 854Q628 854 546.5 779Q465 704 465 569L465 0L160 0L160 1118L391 1118L436 930L451 930Q503 1024 591.5 1081.5Q680 1139 784 1139ZM952 1569L952 1542Q868 1458 797.5 1374.5Q727 1291 696 1241L339 1241Q310 1288 256 1353.5Q202 1419 83 1542L83 1569L286 1569Q433 1476 515 1393Q599 1480 749 1569Z"/></g><g transform="translate(2263.2777777777774 2048) scale (1 -1)"><path d="M465 0L160 0L160 1118L465 1118ZM145 1241L145 1268Q317 1468 380 1569L722 1569L722 1548Q670 1496 544.5 1393.5Q419 1291 348 1241Z"/></g><g transform="translate(2888.2777777777774 2048) scale (1 -1)"><path d="M453 608L586 778L899 1118L1243 1118L799 633L1270 0L918 0L596 453L465 348L465 0L160 0L160 1556L465 1556L465 862L449 608Z"/></g><g transform="translate(4158.277777777777 2048) scale (1 -1)"><path d="M465 0L160 0L160 1556L465 1556Z"/></g><g transform="translate(4783.277777777777 2048) scale (1 -1)"><path d="M870 0L811 152L803 152Q726 55 644.5 17.5Q563 -20 432 -20Q271 -20 178.5 72Q86 164 86 334Q86 512 210.5 596.5Q335 681 586 690L780 696L780 745Q780 915 606 915Q472 915 291 834L190 1040Q383 1141 618 1141Q843 1141 963 1043Q1083 945 1083 745L1083 0ZM780 518L662 514Q529 510 464 466Q399 422 399 332Q399 203 547 203Q653 203 716.5 264Q780 325 780 426Z"/></g><g transform="translate(6020.277777777777 2048) scale (1 -1)"><path d="M514 -20Q317 -20 204.5 133Q92 286 92 557Q92 832 206.5 985.5Q321 1139 522 1139Q733 1139 844 975L854 975Q831 1100 831 1198L831 1556L1137 1556L1137 0L903 0L844 145L831 145Q727 -20 514 -20ZM621 223Q738 223 792.5 291Q847 359 852 522L852 555Q852 735 796.5 813Q741 891 616 891Q514 891 457.5 804.5Q401 718 401 553Q401 388 458 305.5Q515 223 621 223Z"/></g><g transform="translate(7316.277777777777 2048) scale (1 -1)"><path d="M0 1118L334 1118L545 489Q572 407 582 295L588 295Q599 398 631 489L838 1118L1165 1118L692 -143Q627 -318 506.5 -405Q386 -492 225 -492Q146 -492 70 -475L70 -233Q125 -246 190 -246Q271 -246 331.5 -196.5Q392 -147 426 -47L444 8Z"/></g><g transform="translate(9013.277777777777 2048) scale (1 -1)"><path d="M465 0L160 0L160 1556L465 1556Z"/></g><g transform="translate(9638.277777777777 2048) scale (1 -1)"><path d="M147 1407Q147 1556 313 1556Q479 1556 479 1407Q479 1336 437.5 1296.5Q396 1257 313 1257Q147 1257 147 1407ZM465 0L160 0L160 1118L465 1118Z"/></g><g transform="translate(10263.277777777777 2048) scale (1 -1)"><path d="M614 -20Q92 -20 92 553Q92 838 234 988.5Q376 1139 641 1139Q835 1139 989 1063L899 827Q827 856 765 874.5Q703 893 641 893Q403 893 403 555Q403 227 641 227Q729 227 804 250.5Q879 274 954 324L954 63Q880 16 804.5 -2Q729 -20 614 -20Z"/></g><g transform="translate(11316.277777777777 2048) scale (1 -1)"><path d="M623 922Q526 922 471 860.5Q416 799 408 686L836 686Q834 799 777 860.5Q720 922 623 922ZM666 -20Q396 -20 244 129Q92 278 92 551Q92 832 232.5 985.5Q373 1139 621 1139Q858 1139 990 1004Q1122 869 1122 631L1122 483L401 483Q406 353 478 280Q550 207 680 207Q781 207 871 228Q961 249 1059 295L1059 59Q979 19 888 -0.5Q797 -20 666 -20Z"/></g><g transform="translate(12526.277777777777 2048) scale (1 -1)"><path d="M1192 0L887 0L887 653Q887 774 844 834.5Q801 895 707 895Q579 895 522 809.5Q465 724 465 526L465 0L160 0L160 1118L393 1118L434 975L451 975Q502 1056 591.5 1097.5Q681 1139 795 1139Q990 1139 1091 1033.5Q1192 928 1192 729Z"/></g><g transform="translate(13872.277777777777 2048) scale (1 -1)"><path d="M614 -20Q92 -20 92 553Q92 838 234 988.5Q376 1139 641 1139Q835 1139 989 1063L899 827Q827 856 765 874.5Q703 893 641 893Q403 893 403 555Q403 227 641 227Q729 227 804 250.5Q879 274 954 324L954 63Q880 16 804.5 -2Q729 -20 614 -20Z"/></g><g transform="translate(14925.277777777777 2048) scale (1 -1)"><path d="M465 0L160 0L160 1118L465 1118ZM145 1241L145 1268Q317 1468 380 1569L722 1569L722 1548Q670 1496 544.5 1393.5Q419 1291 348 1241Z"/></g></g></g><g transform="translate(-477,-194)"><rect x="0" y="0" width="51" height="35" border="1" rx="10" ry="10" style="fill:#E0E0E0;stroke:#707070;stroke-width:1px;"/><g transform="translate (6 6) scale(0.00732421875)" style="fill:#4F4F4F;"><g transform="translate(29.90000000000009 2048) scale (1 -1)"><path d="M1026 0L184 0L184 1462L1026 1462L1026 1208L494 1208L494 887L989 887L989 633L494 633L494 256L1026 256Z"/></g><g transform="translate(1176.9 2048) scale (1 -1)"><path d="M1374 1462L1374 516Q1374 354 1301.5 232Q1229 110 1092 45Q955 -20 768 -20Q486 -20 330 124.5Q174 269 174 520L174 1462L483 1462L483 567Q483 398 551 319Q619 240 776 240Q928 240 996.5 319.5Q1065 399 1065 569L1065 1462Z"/></g><g transform="translate(2724.9 2048) scale (1 -1)"><path d="M184 0L184 1462L494 1462L494 256L1087 256L1087 0Z"/></g><g transform="translate(3881.9 2048) scale (1 -1)"><path d="M1079 0L973 348L440 348L334 0L0 0L516 1468L895 1468L1413 0ZM899 608Q752 1081 733.5 1143Q715 1205 707 1241Q674 1113 518 608Z"/></g></g></g><g transform="translate(-536,-139)"><rect x="0" y="0" width="110" height="35" border="1" rx="10" ry="10" style="fill:#E0E0E0;stroke:#707070;stroke-width:1px;"/><g transform="translate (6 6) scale(0.00732421875)" style="fill:#4F4F4F;"><g transform="translate(51.63333333333321 2048) scale (1 -1)"><path d="M1161 0L856 0L856 653Q856 774 815.5 834.5Q775 895 688 895Q571 895 518 809Q465 723 465 526L465 0L160 0L160 1118L393 1118L434 975L451 975Q496 1052 581 1095.5Q666 1139 776 1139Q1027 1139 1116 975L1143 975Q1188 1053 1275.5 1096Q1363 1139 1473 1139Q1663 1139 1760.5 1041.5Q1858 944 1858 729L1858 0L1552 0L1552 653Q1552 774 1511.5 834.5Q1471 895 1384 895Q1272 895 1216.5 815Q1161 735 1161 561Z"/></g><g transform="translate(2062.633333333333 2048) scale (1 -1)"><path d="M952 0L911 143L895 143Q846 65 756 22.5Q666 -20 551 -20Q354 -20 254 85.5Q154 191 154 389L154 1118L459 1118L459 465Q459 344 502 283.5Q545 223 639 223Q767 223 824 308.5Q881 394 881 592L881 1118L1186 1118L1186 0Z"/></g><g transform="translate(3408.633333333333 2048) scale (1 -1)"><path d="M465 0L160 0L160 1556L465 1556Z"/></g><g transform="translate(4033.633333333333 2048) scale (1 -1)"><path d="M631 223Q711 223 823 258L823 31Q709 -20 543 -20Q360 -20 276.5 72.5Q193 165 193 350L193 889L47 889L47 1018L215 1120L303 1356L498 1356L498 1118L811 1118L811 889L498 889L498 350Q498 285 534.5 254Q571 223 631 223Z"/></g><g transform="translate(4922.633333333333 2048) scale (1 -1)"><path d="M147 1407Q147 1556 313 1556Q479 1556 479 1407Q479 1336 437.5 1296.5Q396 1257 313 1257Q147 1257 147 1407ZM465 0L160 0L160 1118L465 1118Z"/></g><g transform="translate(5547.633333333333 2048) scale (1 -1)"><path d="M61 424L61 674L598 674L598 424Z"/></g><g transform="translate(6206.633333333333 2048) scale (1 -1)"><path d="M465 0L160 0L160 1556L465 1556Z"/></g><g transform="translate(6831.633333333333 2048) scale (1 -1)"><path d="M147 1407Q147 1556 313 1556Q479 1556 479 1407Q479 1336 437.5 1296.5Q396 1257 313 1257Q147 1257 147 1407ZM465 0L160 0L160 1118L465 1118Z"/></g><g transform="translate(7456.633333333333 2048) scale (1 -1)"><path d="M614 -20Q92 -20 92 553Q92 838 234 988.5Q376 1139 641 1139Q835 1139 989 1063L899 827Q827 856 765 874.5Q703 893 641 893Q403 893 403 555Q403 227 641 227Q729 227 804 250.5Q879 274 954 324L954 63Q880 16 804.5 -2Q729 -20 614 -20Z"/></g><g transform="translate(8509.633333333333 2048) scale (1 -1)"><path d="M623 922Q526 922 471 860.5Q416 799 408 686L836 686Q834 799 777 860.5Q720 922 623 922ZM666 -20Q396 -20 244 129Q92 278 92 551Q92 832 232.5 985.5Q373 1139 621 1139Q858 1139 990 1004Q1122 869 1122 631L1122 483L401 483Q406 353 478 280Q550 207 680 207Q781 207 871 228Q961 249 1059 295L1059 59Q979 19 888 -0.5Q797 -20 666 -20Z"/></g><g transform="translate(9719.633333333333 2048) scale (1 -1)"><path d="M1192 0L887 0L887 653Q887 774 844 834.5Q801 895 707 895Q579 895 522 809.5Q465 724 465 526L465 0L160 0L160 1118L393 1118L434 975L451 975Q502 1056 591.5 1097.5Q681 1139 795 1139Q990 1139 1091 1033.5Q1192 928 1192 729Z"/></g><g transform="translate(11065.633333333333 2048) scale (1 -1)"><path d="M614 -20Q92 -20 92 553Q92 838 234 988.5Q376 1139 641 1139Q835 1139 989 1063L899 827Q827 856 765 874.5Q703 893 641 893Q403 893 403 555Q403 227 641 227Q729 227 804 250.5Q879 274 954 324L954 63Q880 16 804.5 -2Q729 -20 614 -20Z"/></g><g transform="translate(12118.633333333333 2048) scale (1 -1)"><path d="M623 922Q526 922 471 860.5Q416 799 408 686L836 686Q834 799 777 860.5Q720 922 623 922ZM666 -20Q396 -20 244 129Q92 278 92 551Q92 832 232.5 985.5Q373 1139 621 1139Q858 1139 990 1004Q1122 869 1122 631L1122 483L401 483Q406 353 478 280Q550 207 680 207Q781 207 871 228Q961 249 1059 295L1059 59Q979 19 888 -0.5Q797 -20 666 -20Z"/></g></g></g><g transform="translate(-473,-84)"><rect x="0" y="0" width="47" height="35" border="1" rx="10" ry="10" style="fill:#E0E0E0;stroke:#707070;stroke-width:1px;"/><g transform="translate (6 6) scale(0.00732421875)" style="fill:#4F4F4F;"><g transform="translate(35.333333333333485 2048) scale (1 -1)"><path d="M1511 733Q1511 370 1331 175Q1151 -20 815 -20Q479 -20 299 175Q119 370 119 735Q119 1100 299.5 1292.5Q480 1485 817 1485Q1154 1485 1332.5 1291Q1511 1097 1511 733ZM444 733Q444 488 537 364Q630 240 815 240Q1186 240 1186 733Q1186 1227 817 1227Q632 1227 538 1102.5Q444 978 444 733Z"/></g><g transform="translate(1665.3333333333335 2048) scale (1 -1)"><path d="M1026 0L184 0L184 1462L1026 1462L1026 1208L494 1208L494 887L989 887L989 633L494 633L494 256L1026 256Z"/></g><g transform="translate(2812.3333333333335 2048) scale (1 -1)"><path d="M803 0L451 1147L442 1147Q461 797 461 680L461 0L184 0L184 1462L606 1462L952 344L958 344L1325 1462L1747 1462L1747 0L1458 0L1458 692Q1458 741 1459.5 805Q1461 869 1473 1145L1464 1145L1087 0Z"/></g></g></g><g transform="translate(-506,-29)"><rect x="0" y="0" width="80" height="35" border="1" rx="10" ry="10" style="fill:#E0E0E0;stroke:#707070;stroke-width:1px;"/><g transform="translate (6 6) scale(0.00732421875)" style="fill:#4F4F4F;"><g transform="translate(35.63333333333321 2048) scale (1 -1)"><path d="M778 889L514 889L514 0L209 0L209 889L41 889L41 1036L209 1118L209 1200Q209 1391 303 1479Q397 1567 604 1567Q762 1567 885 1520L807 1296Q715 1325 637 1325Q572 1325 543 1286.5Q514 1248 514 1188L514 1118L778 1118Z"/></g><g transform="translate(828.6333333333332 2048) scale (1 -1)"><path d="M784 1139Q846 1139 887 1130L864 844Q827 854 774 854Q628 854 546.5 779Q465 704 465 569L465 0L160 0L160 1118L391 1118L436 930L451 930Q503 1024 591.5 1081.5Q680 1139 784 1139Z"/></g><g transform="translate(1758.6333333333332 2048) scale (1 -1)"><path d="M623 922Q526 922 471 860.5Q416 799 408 686L836 686Q834 799 777 860.5Q720 922 623 922ZM666 -20Q396 -20 244 129Q92 278 92 551Q92 832 232.5 985.5Q373 1139 621 1139Q858 1139 990 1004Q1122 869 1122 631L1122 483L401 483Q406 353 478 280Q550 207 680 207Q781 207 871 228Q961 249 1059 295L1059 59Q979 19 888 -0.5Q797 -20 666 -20Z"/></g><g transform="translate(2968.633333333333 2048) scale (1 -1)"><path d="M623 922Q526 922 471 860.5Q416 799 408 686L836 686Q834 799 777 860.5Q720 922 623 922ZM666 -20Q396 -20 244 129Q92 278 92 551Q92 832 232.5 985.5Q373 1139 621 1139Q858 1139 990 1004Q1122 869 1122 631L1122 483L401 483Q406 353 478 280Q550 207 680 207Q781 207 871 228Q961 249 1059 295L1059 59Q979 19 888 -0.5Q797 -20 666 -20Z"/></g><g transform="translate(4178.633333333333 2048) scale (1 -1)"><path d="M1079 0L993 391L879 885L870 885L666 0L338 0L20 1118L324 1118L453 623Q475 535 514 256L522 256Q526 332 557 497L573 582L711 1118L1047 1118L1178 582Q1190 527 1207.5 420.5Q1225 314 1227 256L1235 256Q1246 345 1266 458.5Q1286 572 1300 623L1434 1118L1733 1118L1411 0Z"/></g><g transform="translate(5931.633333333333 2048) scale (1 -1)"><path d="M870 0L811 152L803 152Q726 55 644.5 17.5Q563 -20 432 -20Q271 -20 178.5 72Q86 164 86 334Q86 512 210.5 596.5Q335 681 586 690L780 696L780 745Q780 915 606 915Q472 915 291 834L190 1040Q383 1141 618 1141Q843 1141 963 1043Q1083 945 1083 745L1083 0ZM780 518L662 514Q529 510 464 466Q399 422 399 332Q399 203 547 203Q653 203 716.5 264Q780 325 780 426Z"/></g><g transform="translate(7168.633333333333 2048) scale (1 -1)"><path d="M784 1139Q846 1139 887 1130L864 844Q827 854 774 854Q628 854 546.5 779Q465 704 465 569L465 0L160 0L160 1118L391 1118L436 930L451 930Q503 1024 591.5 1081.5Q680 1139 784 1139Z"/></g><g transform="translate(8098.633333333333 2048) scale (1 -1)"><path d="M623 922Q526 922 471 860.5Q416 799 408 686L836 686Q834 799 777 860.5Q720 922 623 922ZM666 -20Q396 -20 244 129Q92 278 92 551Q92 832 232.5 985.5Q373 1139 621 1139Q858 1139 990 1004Q1122 869 1122 631L1122 483L401 483Q406 353 478 280Q550 207 680 207Q781 207 871 228Q961 249 1059 295L1059 59Q979 19 888 -0.5Q797 -20 666 -20Z"/></g></g></g><g transform="translate(-518,26)"><rect x="0" y="0" width="92" height="35" border="1" rx="10" ry="10" style="fill:#E0E0E0;stroke:#707070;stroke-width:1px;"/><g transform="translate (6 6) scale(0.00732421875)" style="fill:#4F4F4F;"><g transform="translate(55.83333333333303 2048) scale (1 -1)"><path d="M940 332Q940 160 820.5 70Q701 -20 463 -20Q341 -20 255 -3.5Q169 13 94 45L94 297Q179 257 285.5 230Q392 203 473 203Q639 203 639 299Q639 335 617 357.5Q595 380 541 408.5Q487 437 397 475Q268 529 207.5 575Q147 621 119.5 680.5Q92 740 92 827Q92 976 207.5 1057.5Q323 1139 535 1139Q737 1139 928 1051L836 831Q752 867 679 890Q606 913 530 913Q395 913 395 840Q395 799 438.5 769Q482 739 629 680Q760 627 821 581Q882 535 911 475Q940 415 940 332Z"/></g><g transform="translate(1073.833333333333 2048) scale (1 -1)"><path d="M1192 0L887 0L887 653Q887 895 707 895Q579 895 522 808Q465 721 465 526L465 0L160 0L160 1556L465 1556L465 1239Q465 1202 458 1065L451 975L467 975Q569 1139 791 1139Q988 1139 1090 1033Q1192 927 1192 729Z"/></g><g transform="translate(2419.833333333333 2048) scale (1 -1)"><path d="M870 0L811 152L803 152Q726 55 644.5 17.5Q563 -20 432 -20Q271 -20 178.5 72Q86 164 86 334Q86 512 210.5 596.5Q335 681 586 690L780 696L780 745Q780 915 606 915Q472 915 291 834L190 1040Q383 1141 618 1141Q843 1141 963 1043Q1083 945 1083 745L1083 0ZM780 518L662 514Q529 510 464 466Q399 422 399 332Q399 203 547 203Q653 203 716.5 264Q780 325 780 426Z"/></g><g transform="translate(3656.833333333333 2048) scale (1 -1)"><path d="M784 1139Q846 1139 887 1130L864 844Q827 854 774 854Q628 854 546.5 779Q465 704 465 569L465 0L160 0L160 1118L391 1118L436 930L451 930Q503 1024 591.5 1081.5Q680 1139 784 1139Z"/></g><g transform="translate(4586.833333333333 2048) scale (1 -1)"><path d="M623 922Q526 922 471 860.5Q416 799 408 686L836 686Q834 799 777 860.5Q720 922 623 922ZM666 -20Q396 -20 244 129Q92 278 92 551Q92 832 232.5 985.5Q373 1139 621 1139Q858 1139 990 1004Q1122 869 1122 631L1122 483L401 483Q406 353 478 280Q550 207 680 207Q781 207 871 228Q961 249 1059 295L1059 59Q979 19 888 -0.5Q797 -20 666 -20Z"/></g><g transform="translate(5796.833333333333 2048) scale (1 -1)"><path d="M1079 0L993 391L879 885L870 885L666 0L338 0L20 1118L324 1118L453 623Q475 535 514 256L522 256Q526 332 557 497L573 582L711 1118L1047 1118L1178 582Q1190 527 1207.5 420.5Q1225 314 1227 256L1235 256Q1246 345 1266 458.5Q1286 572 1300 623L1434 1118L1733 1118L1411 0Z"/></g><g transform="translate(7549.833333333333 2048) scale (1 -1)"><path d="M870 0L811 152L803 152Q726 55 644.5 17.5Q563 -20 432 -20Q271 -20 178.5 72Q86 164 86 334Q86 512 210.5 596.5Q335 681 586 690L780 696L780 745Q780 915 606 915Q472 915 291 834L190 1040Q383 1141 618 1141Q843 1141 963 1043Q1083 945 1083 745L1083 0ZM780 518L662 514Q529 510 464 466Q399 422 399 332Q399 203 547 203Q653 203 716.5 264Q780 325 780 426Z"/></g><g transform="translate(8786.833333333332 2048) scale (1 -1)"><path d="M784 1139Q846 1139 887 1130L864 844Q827 854 774 854Q628 854 546.5 779Q465 704 465 569L465 0L160 0L160 1118L391 1118L436 930L451 930Q503 1024 591.5 1081.5Q680 1139 784 1139Z"/></g><g transform="translate(9716.833333333332 2048) scale (1 -1)"><path d="M623 922Q526 922 471 860.5Q416 799 408 686L836 686Q834 799 777 860.5Q720 922 623 922ZM666 -20Q396 -20 244 129Q92 278 92 551Q92 832 232.5 985.5Q373 1139 621 1139Q858 1139 990 1004Q1122 869 1122 631L1122 483L401 483Q406 353 478 280Q550 207 680 207Q781 207 871 228Q961 249 1059 295L1059 59Q979 19 888 -0.5Q797 -20 666 -20Z"/></g></g></g><g transform="translate(377,-274)"><rect x="0" y="0" width="101" height="39" border="1" rx="10" ry="10" style="fill:#FFFFFF;stroke:#707070;stroke-width:1px;"/><g transform="translate (6 6) scale(0.0087890625)" style="fill:#FF00FF;"><g transform="translate(36.61111111111131 2048) scale (1 -1)"><path d="M782 1139Q980 1139 1092 984.5Q1204 830 1204 561Q1204 284 1088.5 132Q973 -20 774 -20Q577 -20 465 123L444 123L393 0L160 0L160 1556L465 1556L465 1194Q465 1125 453 973L465 973Q572 1139 782 1139ZM684 895Q571 895 519 825.5Q467 756 465 596L465 563Q465 383 518.5 305Q572 227 688 227Q782 227 837.5 313.5Q893 400 893 565Q893 730 837 812.5Q781 895 684 895Z"/></g><g transform="translate(1332.6111111111113 2048) scale (1 -1)"><path d="M623 922Q526 922 471 860.5Q416 799 408 686L836 686Q834 799 777 860.5Q720 922 623 922ZM666 -20Q396 -20 244 129Q92 278 92 551Q92 832 232.5 985.5Q373 1139 621 1139Q858 1139 990 1004Q1122 869 1122 631L1122 483L401 483Q406 353 478 280Q550 207 680 207Q781 207 871 228Q961 249 1059 295L1059 59Q979 19 888 -0.5Q797 -20 666 -20Z"/></g><g transform="translate(2542.6111111111113 2048) scale (1 -1)"><path d="M938 0L55 0L55 180L573 885L86 885L86 1118L920 1118L920 920L416 233L938 233Z"/></g><g transform="translate(3541.6111111111113 2048) scale (1 -1)"><path d="M774 -20Q577 -20 465 123L449 123Q465 -17 465 -39L465 -492L160 -492L160 1118L408 1118L451 973L465 973Q572 1139 782 1139Q980 1139 1092 986Q1204 833 1204 561Q1204 382 1151.5 250Q1099 118 1002 49Q905 -20 774 -20ZM684 895Q571 895 519 825.5Q467 756 465 596L465 563Q465 383 518.5 305Q572 227 688 227Q893 227 893 565Q893 730 842.5 812.5Q792 895 684 895Z"/></g><g transform="translate(4837.611111111111 2048) scale (1 -1)"><path d="M465 0L160 0L160 1556L465 1556Z"/></g><g transform="translate(5462.611111111111 2048) scale (1 -1)"><path d="M870 0L811 152L803 152Q726 55 644.5 17.5Q563 -20 432 -20Q271 -20 178.5 72Q86 164 86 334Q86 512 210.5 596.5Q335 681 586 690L780 696L780 745Q780 915 606 915Q472 915 291 834L190 1040Q383 1141 618 1141Q843 1141 963 1043Q1083 945 1083 745L1083 0ZM780 518L662 514Q529 510 464 466Q399 422 399 332Q399 203 547 203Q653 203 716.5 264Q780 325 780 426Z"/></g><g transform="translate(6699.611111111111 2048) scale (1 -1)"><path d="M631 223Q711 223 823 258L823 31Q709 -20 543 -20Q360 -20 276.5 72.5Q193 165 193 350L193 889L47 889L47 1018L215 1120L303 1356L498 1356L498 1118L811 1118L811 889L498 889L498 350Q498 285 534.5 254Q571 223 631 223Z"/></g><g transform="translate(7588.611111111111 2048) scale (1 -1)"><path d="M1192 0L887 0L887 653Q887 774 844 834.5Q801 895 707 895Q579 895 522 809.5Q465 724 465 526L465 0L160 0L160 1118L393 1118L434 975L451 975Q502 1056 591.5 1097.5Q681 1139 795 1139Q990 1139 1091 1033.5Q1192 928 1192 729Z"/></g><g transform="translate(8934.611111111111 2048) scale (1 -1)"><path d="M0 1118L334 1118L545 489Q572 407 582 295L588 295Q599 398 631 489L838 1118L1165 1118L692 -143Q627 -318 506.5 -405Q386 -492 225 -492Q146 -492 70 -475L70 -233Q125 -246 190 -246Q271 -246 331.5 -196.5Q392 -147 426 -47L444 8ZM393 1241L393 1268Q565 1468 628 1569L970 1569L970 1548Q918 1496 792.5 1393.5Q667 1291 596 1241Z"/></g></g></g><g transform="translate(383,-96)"><rect x="0" y="0" width="158" height="58" border="1" rx="10" ry="10" style="fill:#FFFFFF;stroke:#707070;stroke-width:1px;"/><g transform="translate (6 6) scale(0.00732421875)" style="fill:#FF00FF;"><g transform="translate(791.4333333333325 2048) scale (1 -1)"><path d="M403 561Q403 395 457.5 310Q512 225 635 225Q757 225 810.5 309.5Q864 394 864 561Q864 727 810 810Q756 893 633 893Q511 893 457 810.5Q403 728 403 561ZM1176 561Q1176 288 1032 134Q888 -20 631 -20Q470 -20 347 50.5Q224 121 158 253Q92 385 92 561Q92 835 235 987Q378 1139 637 1139Q798 1139 921 1069Q1044 999 1110 868Q1176 737 1176 561Z"/></g><g transform="translate(2059.4333333333325 2048) scale (1 -1)"><path d="M631 223Q711 223 823 258L823 31Q709 -20 543 -20Q360 -20 276.5 72.5Q193 165 193 350L193 889L47 889L47 1018L215 1120L303 1356L498 1356L498 1118L811 1118L811 889L498 889L498 350Q498 285 534.5 254Q571 223 631 223Z"/></g><g transform="translate(2948.4333333333325 2048) scale (1 -1)"><path d="M623 922Q526 922 471 860.5Q416 799 408 686L836 686Q834 799 777 860.5Q720 922 623 922ZM666 -20Q396 -20 244 129Q92 278 92 551Q92 832 232.5 985.5Q373 1139 621 1139Q858 1139 990 1004Q1122 869 1122 631L1122 483L401 483Q406 353 478 280Q550 207 680 207Q781 207 871 228Q961 249 1059 295L1059 59Q979 19 888 -0.5Q797 -20 666 -20Z"/></g><g transform="translate(4158.4333333333325 2048) scale (1 -1)"><path d="M426 0L0 1118L319 1118L535 481Q568 377 578 252L586 252Q592 365 631 481L846 1118L1165 1118L739 0Z"/></g><g transform="translate(5323.4333333333325 2048) scale (1 -1)"><path d="M784 1139Q846 1139 887 1130L864 844Q827 854 774 854Q628 854 546.5 779Q465 704 465 569L465 0L160 0L160 1118L391 1118L436 930L451 930Q503 1024 591.5 1081.5Q680 1139 784 1139ZM952 1569L952 1542Q868 1458 797.5 1374.5Q727 1291 696 1241L339 1241Q310 1288 256 1353.5Q202 1419 83 1542L83 1569L286 1569Q433 1476 515 1393Q599 1480 749 1569Z"/></g><g transform="translate(6253.4333333333325 2048) scale (1 -1)"><path d="M623 922Q526 922 471 860.5Q416 799 408 686L836 686Q834 799 777 860.5Q720 922 623 922ZM666 -20Q396 -20 244 129Q92 278 92 551Q92 832 232.5 985.5Q373 1139 621 1139Q858 1139 990 1004Q1122 869 1122 631L1122 483L401 483Q406 353 478 280Q550 207 680 207Q781 207 871 228Q961 249 1059 295L1059 59Q979 19 888 -0.5Q797 -20 666 -20Z"/></g><g transform="translate(7463.4333333333325 2048) scale (1 -1)"><path d="M1192 0L887 0L887 653Q887 774 844 834.5Q801 895 707 895Q579 895 522 809.5Q465 724 465 526L465 0L160 0L160 1118L393 1118L434 975L451 975Q502 1056 591.5 1097.5Q681 1139 795 1139Q990 1139 1091 1033.5Q1192 928 1192 729Z"/></g><g transform="translate(8809.433333333332 2048) scale (1 -1)"><path d="M0 1118L334 1118L545 489Q572 407 582 295L588 295Q599 398 631 489L838 1118L1165 1118L692 -143Q627 -318 506.5 -405Q386 -492 225 -492Q146 -492 70 -475L70 -233Q125 -246 190 -246Q271 -246 331.5 -196.5Q392 -147 426 -47L444 8ZM393 1241L393 1268Q565 1468 628 1569L970 1569L970 1548Q918 1496 792.5 1393.5Q667 1291 596 1241Z"/></g><g transform="translate(10506.433333333332 2048) scale (1 -1)"><path d="M938 0L55 0L55 180L573 885L86 885L86 1118L920 1118L920 920L416 233L938 233Z"/></g><g transform="translate(11505.433333333332 2048) scale (1 -1)"><path d="M514 -20Q317 -20 204.5 133Q92 286 92 557Q92 832 206.5 985.5Q321 1139 522 1139Q733 1139 844 975L854 975Q831 1100 831 1198L831 1556L1137 1556L1137 0L903 0L844 145L831 145Q727 -20 514 -20ZM621 223Q738 223 792.5 291Q847 359 852 522L852 555Q852 735 796.5 813Q741 891 616 891Q514 891 457.5 804.5Q401 718 401 553Q401 388 458 305.5Q515 223 621 223Z"/></g><g transform="translate(12801.433333333332 2048) scale (1 -1)"><path d="M784 1139Q846 1139 887 1130L864 844Q827 854 774 854Q628 854 546.5 779Q465 704 465 569L465 0L160 0L160 1118L391 1118L436 930L451 930Q503 1024 591.5 1081.5Q680 1139 784 1139Z"/></g><g transform="translate(13731.433333333332 2048) scale (1 -1)"><path d="M403 561Q403 395 457.5 310Q512 225 635 225Q757 225 810.5 309.5Q864 394 864 561Q864 727 810 810Q756 893 633 893Q511 893 457 810.5Q403 728 403 561ZM1176 561Q1176 288 1032 134Q888 -20 631 -20Q470 -20 347 50.5Q224 121 158 253Q92 385 92 561Q92 835 235 987Q378 1139 637 1139Q798 1139 921 1069Q1044 999 1110 868Q1176 737 1176 561Z"/></g><g transform="translate(14999.433333333332 2048) scale (1 -1)"><path d="M70 -492Q-47 -492 -131 -467L-131 -227Q-61 -246 12 -246Q89 -246 124.5 -203Q160 -160 160 -76L160 1118L465 1118L465 -121Q465 -299 362 -395.5Q259 -492 70 -492ZM147 1407Q147 1556 313 1556Q479 1556 479 1407Q479 1336 437.5 1296.5Q396 1257 313 1257Q147 1257 147 1407Z"/></g><g transform="translate(15624.433333333332 2048) scale (1 -1)"><path d="M403 561Q403 395 457.5 310Q512 225 635 225Q757 225 810.5 309.5Q864 394 864 561Q864 727 810 810Q756 893 633 893Q511 893 457 810.5Q403 728 403 561ZM1176 561Q1176 288 1032 134Q888 -20 631 -20Q470 -20 347 50.5Q224 121 158 253Q92 385 92 561Q92 835 235 987Q378 1139 637 1139Q798 1139 921 1069Q1044 999 1110 868Q1176 737 1176 561Z"/></g><g transform="translate(16892.433333333334 2048) scale (1 -1)"><path d="M426 0L0 1118L319 1118L535 481Q568 377 578 252L586 252Q592 365 631 481L846 1118L1165 1118L739 0Z"/></g><g transform="translate(18057.433333333334 2048) scale (1 -1)"><path d="M0 1118L334 1118L545 489Q572 407 582 295L588 295Q599 398 631 489L838 1118L1165 1118L692 -143Q627 -318 506.5 -405Q386 -492 225 -492Q146 -492 70 -475L70 -233Q125 -246 190 -246Q271 -246 331.5 -196.5Q392 -147 426 -47L444 8ZM393 1241L393 1268Q565 1468 628 1569L970 1569L970 1548Q918 1496 792.5 1393.5Q667 1291 596 1241Z"/></g><g transform="translate(8059.9333333333325 5188.266666666666) scale (1 -1)"><path d="M453 608L586 778L899 1118L1243 1118L799 633L1270 0L918 0L596 453L465 348L465 0L160 0L160 1556L465 1556L465 862L449 608Z"/></g><g transform="translate(9329.933333333332 5188.266666666666) scale (1 -1)"><path d="M403 561Q403 395 457.5 310Q512 225 635 225Q757 225 810.5 309.5Q864 394 864 561Q864 727 810 810Q756 893 633 893Q511 893 457 810.5Q403 728 403 561ZM1176 561Q1176 288 1032 134Q888 -20 631 -20Q470 -20 347 50.5Q224 121 158 253Q92 385 92 561Q92 835 235 987Q378 1139 637 1139Q798 1139 921 1069Q1044 999 1110 868Q1176 737 1176 561ZM467 1241L467 1268Q639 1468 702 1569L1044 1569L1044 1548Q992 1496 866.5 1393.5Q741 1291 670 1241Z"/></g><g transform="translate(10597.933333333332 5188.266666666666) scale (1 -1)"><path d="M514 -20Q317 -20 204.5 133Q92 286 92 557Q92 832 206.5 985.5Q321 1139 522 1139Q733 1139 844 975L854 975Q831 1100 831 1198L831 1556L1137 1556L1137 0L903 0L844 145L831 145Q727 -20 514 -20ZM621 223Q738 223 792.5 291Q847 359 852 522L852 555Q852 735 796.5 813Q741 891 616 891Q514 891 457.5 804.5Q401 718 401 553Q401 388 458 305.5Q515 223 621 223Z"/></g></g></g><g transform="translate(377,29)"><rect x="0" y="0" width="130" height="35" border="1" rx="10" ry="10" style="fill:#993300;stroke:#707070;stroke-width:1px;"/><g transform="translate (6 6) scale(0.00732421875)" style="fill:#FFFF99;"><g transform="translate(28.966666666666242 2048) scale (1 -1)"><path d="M774 -20Q577 -20 465 123L449 123Q465 -17 465 -39L465 -492L160 -492L160 1118L408 1118L451 973L465 973Q572 1139 782 1139Q980 1139 1092 986Q1204 833 1204 561Q1204 382 1151.5 250Q1099 118 1002 49Q905 -20 774 -20ZM684 895Q571 895 519 825.5Q467 756 465 596L465 563Q465 383 518.5 305Q572 227 688 227Q893 227 893 565Q893 730 842.5 812.5Q792 895 684 895Z"/></g><g transform="translate(1324.9666666666662 2048) scale (1 -1)"><path d="M784 1139Q846 1139 887 1130L864 844Q827 854 774 854Q628 854 546.5 779Q465 704 465 569L465 0L160 0L160 1118L391 1118L436 930L451 930Q503 1024 591.5 1081.5Q680 1139 784 1139ZM952 1569L952 1542Q868 1458 797.5 1374.5Q727 1291 696 1241L339 1241Q310 1288 256 1353.5Q202 1419 83 1542L83 1569L286 1569Q433 1476 515 1393Q599 1480 749 1569Z"/></g><g transform="translate(2254.9666666666662 2048) scale (1 -1)"><path d="M465 0L160 0L160 1118L465 1118ZM145 1241L145 1268Q317 1468 380 1569L722 1569L722 1548Q670 1496 544.5 1393.5Q419 1291 348 1241Z"/></g><g transform="translate(2879.9666666666662 2048) scale (1 -1)"><path d="M453 608L586 778L899 1118L1243 1118L799 633L1270 0L918 0L596 453L465 348L465 0L160 0L160 1556L465 1556L465 862L449 608Z"/></g><g transform="translate(4149.966666666666 2048) scale (1 -1)"><path d="M465 0L160 0L160 1556L465 1556Z"/></g><g transform="translate(4774.966666666666 2048) scale (1 -1)"><path d="M870 0L811 152L803 152Q726 55 644.5 17.5Q563 -20 432 -20Q271 -20 178.5 72Q86 164 86 334Q86 512 210.5 596.5Q335 681 586 690L780 696L780 745Q780 915 606 915Q472 915 291 834L190 1040Q383 1141 618 1141Q843 1141 963 1043Q1083 945 1083 745L1083 0ZM780 518L662 514Q529 510 464 466Q399 422 399 332Q399 203 547 203Q653 203 716.5 264Q780 325 780 426Z"/></g><g transform="translate(6011.966666666666 2048) scale (1 -1)"><path d="M514 -20Q317 -20 204.5 133Q92 286 92 557Q92 832 206.5 985.5Q321 1139 522 1139Q733 1139 844 975L854 975Q831 1100 831 1198L831 1556L1137 1556L1137 0L903 0L844 145L831 145Q727 -20 514 -20ZM621 223Q738 223 792.5 291Q847 359 852 522L852 555Q852 735 796.5 813Q741 891 616 891Q514 891 457.5 804.5Q401 718 401 553Q401 388 458 305.5Q515 223 621 223Z"/></g><g transform="translate(7307.966666666666 2048) scale (1 -1)"><path d="M0 1118L334 1118L545 489Q572 407 582 295L588 295Q599 398 631 489L838 1118L1165 1118L692 -143Q627 -318 506.5 -405Q386 -492 225 -492Q146 -492 70 -475L70 -233Q125 -246 190 -246Q271 -246 331.5 -196.5Q392 -147 426 -47L444 8Z"/></g><g transform="translate(9004.966666666667 2048) scale (1 -1)"><path d="M465 0L160 0L160 1556L465 1556Z"/></g><g transform="translate(9629.966666666667 2048) scale (1 -1)"><path d="M147 1407Q147 1556 313 1556Q479 1556 479 1407Q479 1336 437.5 1296.5Q396 1257 313 1257Q147 1257 147 1407ZM465 0L160 0L160 1118L465 1118Z"/></g><g transform="translate(10254.966666666667 2048) scale (1 -1)"><path d="M614 -20Q92 -20 92 553Q92 838 234 988.5Q376 1139 641 1139Q835 1139 989 1063L899 827Q827 856 765 874.5Q703 893 641 893Q403 893 403 555Q403 227 641 227Q729 227 804 250.5Q879 274 954 324L954 63Q880 16 804.5 -2Q729 -20 614 -20Z"/></g><g transform="translate(11307.966666666667 2048) scale (1 -1)"><path d="M623 922Q526 922 471 860.5Q416 799 408 686L836 686Q834 799 777 860.5Q720 922 623 922ZM666 -20Q396 -20 244 129Q92 278 92 551Q92 832 232.5 985.5Q373 1139 621 1139Q858 1139 990 1004Q1122 869 1122 631L1122 483L401 483Q406 353 478 280Q550 207 680 207Q781 207 871 228Q961 249 1059 295L1059 59Q979 19 888 -0.5Q797 -20 666 -20Z"/></g><g transform="translate(12517.966666666667 2048) scale (1 -1)"><path d="M1192 0L887 0L887 653Q887 774 844 834.5Q801 895 707 895Q579 895 522 809.5Q465 724 465 526L465 0L160 0L160 1118L393 1118L434 975L451 975Q502 1056 591.5 1097.5Q681 1139 795 1139Q990 1139 1091 1033.5Q1192 928 1192 729Z"/></g><g transform="translate(13863.966666666667 2048) scale (1 -1)"><path d="M614 -20Q92 -20 92 553Q92 838 234 988.5Q376 1139 641 1139Q835 1139 989 1063L899 827Q827 856 765 874.5Q703 893 641 893Q403 893 403 555Q403 227 641 227Q729 227 804 250.5Q879 274 954 324L954 63Q880 16 804.5 -2Q729 -20 614 -20Z"/></g><g transform="translate(14916.966666666667 2048) scale (1 -1)"><path d="M0 1118L334 1118L545 489Q572 407 582 295L588 295Q599 398 631 489L838 1118L1165 1118L692 -143Q627 -318 506.5 -405Q386 -492 225 -492Q146 -492 70 -475L70 -233Q125 -246 190 -246Q271 -246 331.5 -196.5Q392 -147 426 -47L444 8ZM393 1241L393 1268Q565 1468 628 1569L970 1569L970 1548Q918 1496 792.5 1393.5Q667 1291 596 1241Z"/></g></g></g><g transform="translate(527,-18)"><rect x="0" y="0" width="66" height="30" border="1" rx="10" ry="10" style="fill:#E0E0E0;stroke:#707070;stroke-width:1px;"/><g transform="translate (6 6) scale(0.005859375)" style="fill:#4F4F4F;"><g transform="translate(31 2048) scale (1 -1)"><path d="M739 821L1319 821L1319 63Q1178 17 1053.5 -1.5Q929 -20 799 -20Q468 -20 293.5 174.5Q119 369 119 733Q119 1087 321.5 1285Q524 1483 883 1483Q1108 1483 1317 1393L1214 1145Q1054 1225 881 1225Q680 1225 559 1090Q438 955 438 727Q438 489 535.5 363.5Q633 238 819 238Q916 238 1016 258L1016 563L739 563Z"/></g><g transform="translate(1514 2048) scale (1 -1)"><path d="M1481 0L1087 0L451 1106L442 1106Q461 813 461 688L461 0L184 0L184 1462L575 1462L1210 367L1217 367Q1202 652 1202 770L1202 1462L1481 1462Z"/></g><g transform="translate(3179 2048) scale (1 -1)"><path d="M1374 1462L1374 516Q1374 354 1301.5 232Q1229 110 1092 45Q955 -20 768 -20Q486 -20 330 124.5Q174 269 174 520L174 1462L483 1462L483 567Q483 398 551 319Q619 240 776 240Q928 240 996.5 319.5Q1065 399 1065 569L1065 1462Z"/></g><g transform="translate(5259 2048) scale (1 -1)"><path d="M739 821L1319 821L1319 63Q1178 17 1053.5 -1.5Q929 -20 799 -20Q468 -20 293.5 174.5Q119 369 119 733Q119 1087 321.5 1285Q524 1483 883 1483Q1108 1483 1317 1393L1214 1145Q1054 1225 881 1225Q680 1225 559 1090Q438 955 438 727Q438 489 535.5 363.5Q633 238 819 238Q916 238 1016 258L1016 563L739 563Z"/></g><g transform="translate(6742 2048) scale (1 -1)"><path d="M494 774L596 774Q739 774 810 830.5Q881 887 881 995Q881 1104 821.5 1156Q762 1208 635 1208L494 1208ZM1194 1006Q1194 770 1046.5 645Q899 520 627 520L494 520L494 0L184 0L184 1462L651 1462Q917 1462 1055.5 1347.5Q1194 1233 1194 1006Z"/></g><g transform="translate(8028 2048) scale (1 -1)"><path d="M184 0L184 1462L494 1462L494 256L1087 256L1087 0Z"/></g></g></g><g transform="translate(527,32)"><rect x="0" y="0" width="35" height="30" border="1" rx="10" ry="10" style="fill:#E0E0E0;stroke:#707070;stroke-width:1px;"/><g transform="translate (6 6) scale(0.005859375)" style="fill:#4F4F4F;"><g transform="translate(5.6666666666667425 2048) scale (1 -1)"><path d="M803 0L451 1147L442 1147Q461 797 461 680L461 0L184 0L184 1462L606 1462L952 344L958 344L1325 1462L1747 1462L1747 0L1458 0L1458 692Q1458 741 1459.5 805Q1461 869 1473 1145L1464 1145L1087 0Z"/></g><g transform="translate(1936.6666666666667 2048) scale (1 -1)"><path d="M731 0L66 0L66 176L244 258L244 1204L66 1286L66 1462L731 1462L731 1286L553 1204L553 258L731 176Z"/></g><g transform="translate(2733.666666666667 2048) scale (1 -1)"><path d="M748 0L438 0L438 1204L41 1204L41 1462L1145 1462L1145 1204L748 1204Z"/></g></g></g><g transform="translate(527,82)"><rect x="0" y="0" width="57" height="30" border="1" rx="10" ry="10" style="fill:#E0E0E0;stroke:#707070;stroke-width:1px;"/><g transform="translate (6 6) scale(0.005859375)" style="fill:#4F4F4F;"><g transform="translate(62.5 2048) scale (1 -1)"><path d="M1079 0L973 348L440 348L334 0L0 0L516 1468L895 1468L1413 0ZM899 608Q752 1081 733.5 1143Q715 1205 707 1241Q674 1113 518 608Z"/></g><g transform="translate(1475.5 2048) scale (1 -1)"><path d="M774 -20Q577 -20 465 123L449 123Q465 -17 465 -39L465 -492L160 -492L160 1118L408 1118L451 973L465 973Q572 1139 782 1139Q980 1139 1092 986Q1204 833 1204 561Q1204 382 1151.5 250Q1099 118 1002 49Q905 -20 774 -20ZM684 895Q571 895 519 825.5Q467 756 465 596L465 563Q465 383 518.5 305Q572 227 688 227Q893 227 893 565Q893 730 842.5 812.5Q792 895 684 895Z"/></g><g transform="translate(2771.5 2048) scale (1 -1)"><path d="M870 0L811 152L803 152Q726 55 644.5 17.5Q563 -20 432 -20Q271 -20 178.5 72Q86 164 86 334Q86 512 210.5 596.5Q335 681 586 690L780 696L780 745Q780 915 606 915Q472 915 291 834L190 1040Q383 1141 618 1141Q843 1141 963 1043Q1083 945 1083 745L1083 0ZM780 518L662 514Q529 510 464 466Q399 422 399 332Q399 203 547 203Q653 203 716.5 264Q780 325 780 426Z"/></g><g transform="translate(4008.5 2048) scale (1 -1)"><path d="M614 -20Q92 -20 92 553Q92 838 234 988.5Q376 1139 641 1139Q835 1139 989 1063L899 827Q827 856 765 874.5Q703 893 641 893Q403 893 403 555Q403 227 641 227Q729 227 804 250.5Q879 274 954 324L954 63Q880 16 804.5 -2Q729 -20 614 -20Z"/></g><g transform="translate(5061.5 2048) scale (1 -1)"><path d="M1192 0L887 0L887 653Q887 895 707 895Q579 895 522 808Q465 721 465 526L465 0L160 0L160 1556L465 1556L465 1239Q465 1202 458 1065L451 975L467 975Q569 1139 791 1139Q988 1139 1090 1033Q1192 927 1192 729Z"/></g><g transform="translate(6407.5 2048) scale (1 -1)"><path d="M623 922Q526 922 471 860.5Q416 799 408 686L836 686Q834 799 777 860.5Q720 922 623 922ZM666 -20Q396 -20 244 129Q92 278 92 551Q92 832 232.5 985.5Q373 1139 621 1139Q858 1139 990 1004Q1122 869 1122 631L1122 483L401 483Q406 353 478 280Q550 207 680 207Q781 207 871 228Q961 249 1059 295L1059 59Q979 19 888 -0.5Q797 -20 666 -20Z"/></g></g></g><g transform="translate(-410,153)"><rect x="0" y="0" width="153" height="35" border="1" rx="10" ry="10" style="fill:#0000FF;stroke:#707070;stroke-width:1px;"/><g transform="translate (6 6) scale(0.00732421875)" style="fill:#FFFF00;"><g transform="translate(0.6000000000003638 2048) scale (1 -1)"><path d="M774 -20Q577 -20 465 123L449 123Q465 -17 465 -39L465 -492L160 -492L160 1118L408 1118L451 973L465 973Q572 1139 782 1139Q980 1139 1092 986Q1204 833 1204 561Q1204 382 1151.5 250Q1099 118 1002 49Q905 -20 774 -20ZM684 895Q571 895 519 825.5Q467 756 465 596L465 563Q465 383 518.5 305Q572 227 688 227Q893 227 893 565Q893 730 842.5 812.5Q792 895 684 895Z"/></g><g transform="translate(1296.6000000000004 2048) scale (1 -1)"><path d="M784 1139Q846 1139 887 1130L864 844Q827 854 774 854Q628 854 546.5 779Q465 704 465 569L465 0L160 0L160 1118L391 1118L436 930L451 930Q503 1024 591.5 1081.5Q680 1139 784 1139ZM952 1569L952 1542Q868 1458 797.5 1374.5Q727 1291 696 1241L339 1241Q310 1288 256 1353.5Q202 1419 83 1542L83 1569L286 1569Q433 1476 515 1393Q599 1480 749 1569Z"/></g><g transform="translate(2226.6000000000004 2048) scale (1 -1)"><path d="M465 0L160 0L160 1118L465 1118ZM145 1241L145 1268Q317 1468 380 1569L722 1569L722 1548Q670 1496 544.5 1393.5Q419 1291 348 1241Z"/></g><g transform="translate(2851.6000000000004 2048) scale (1 -1)"><path d="M453 608L586 778L899 1118L1243 1118L799 633L1270 0L918 0L596 453L465 348L465 0L160 0L160 1556L465 1556L465 862L449 608Z"/></g><g transform="translate(4121.6 2048) scale (1 -1)"><path d="M465 0L160 0L160 1556L465 1556Z"/></g><g transform="translate(4746.6 2048) scale (1 -1)"><path d="M870 0L811 152L803 152Q726 55 644.5 17.5Q563 -20 432 -20Q271 -20 178.5 72Q86 164 86 334Q86 512 210.5 596.5Q335 681 586 690L780 696L780 745Q780 915 606 915Q472 915 291 834L190 1040Q383 1141 618 1141Q843 1141 963 1043Q1083 945 1083 745L1083 0ZM780 518L662 514Q529 510 464 466Q399 422 399 332Q399 203 547 203Q653 203 716.5 264Q780 325 780 426Z"/></g><g transform="translate(5983.6 2048) scale (1 -1)"><path d="M514 -20Q317 -20 204.5 133Q92 286 92 557Q92 832 206.5 985.5Q321 1139 522 1139Q733 1139 844 975L854 975Q831 1100 831 1198L831 1556L1137 1556L1137 0L903 0L844 145L831 145Q727 -20 514 -20ZM621 223Q738 223 792.5 291Q847 359 852 522L852 555Q852 735 796.5 813Q741 891 616 891Q514 891 457.5 804.5Q401 718 401 553Q401 388 458 305.5Q515 223 621 223Z"/></g><g transform="translate(7279.6 2048) scale (1 -1)"><path d="M0 1118L334 1118L545 489Q572 407 582 295L588 295Q599 398 631 489L838 1118L1165 1118L692 -143Q627 -318 506.5 -405Q386 -492 225 -492Q146 -492 70 -475L70 -233Q125 -246 190 -246Q271 -246 331.5 -196.5Q392 -147 426 -47L444 8Z"/></g><g transform="translate(8976.6 2048) scale (1 -1)"><path d="M774 -20Q577 -20 465 123L449 123Q465 -17 465 -39L465 -492L160 -492L160 1118L408 1118L451 973L465 973Q572 1139 782 1139Q980 1139 1092 986Q1204 833 1204 561Q1204 382 1151.5 250Q1099 118 1002 49Q905 -20 774 -20ZM684 895Q571 895 519 825.5Q467 756 465 596L465 563Q465 383 518.5 305Q572 227 688 227Q893 227 893 565Q893 730 842.5 812.5Q792 895 684 895Z"/></g><g transform="translate(10272.6 2048) scale (1 -1)"><path d="M784 1139Q846 1139 887 1130L864 844Q827 854 774 854Q628 854 546.5 779Q465 704 465 569L465 0L160 0L160 1118L391 1118L436 930L451 930Q503 1024 591.5 1081.5Q680 1139 784 1139Z"/></g><g transform="translate(11202.6 2048) scale (1 -1)"><path d="M403 561Q403 395 457.5 310Q512 225 635 225Q757 225 810.5 309.5Q864 394 864 561Q864 727 810 810Q756 893 633 893Q511 893 457 810.5Q403 728 403 561ZM1176 561Q1176 288 1032 134Q888 -20 631 -20Q470 -20 347 50.5Q224 121 158 253Q92 385 92 561Q92 835 235 987Q378 1139 637 1139Q798 1139 921 1069Q1044 999 1110 868Q1176 737 1176 561Z"/></g><g transform="translate(12470.6 2048) scale (1 -1)"><path d="M623 219Q746 219 799 289.5Q852 360 852 518L852 555Q852 734 796.5 812.5Q741 891 618 891Q403 891 403 553Q403 385 456.5 302Q510 219 623 219ZM1137 -2Q1137 -243 996.5 -367.5Q856 -492 578 -492Q333 -492 160 -426L160 -182Q363 -268 596 -268Q831 -268 831 -14L831 8L840 145L831 145Q724 -20 514 -20Q313 -20 202.5 135Q92 290 92 557Q92 832 206.5 985.5Q321 1139 522 1139Q728 1139 846 975L854 975L879 1118L1137 1118Z"/></g><g transform="translate(13766.6 2048) scale (1 -1)"><path d="M784 1139Q846 1139 887 1130L864 844Q827 854 774 854Q628 854 546.5 779Q465 704 465 569L465 0L160 0L160 1118L391 1118L436 930L451 930Q503 1024 591.5 1081.5Q680 1139 784 1139Z"/></g><g transform="translate(14696.6 2048) scale (1 -1)"><path d="M870 0L811 152L803 152Q726 55 644.5 17.5Q563 -20 432 -20Q271 -20 178.5 72Q86 164 86 334Q86 512 210.5 596.5Q335 681 586 690L780 696L780 745Q780 915 606 915Q472 915 291 834L190 1040Q383 1141 618 1141Q843 1141 963 1043Q1083 945 1083 745L1083 0ZM780 518L662 514Q529 510 464 466Q399 422 399 332Q399 203 547 203Q653 203 716.5 264Q780 325 780 426Z"/></g><g transform="translate(15933.6 2048) scale (1 -1)"><path d="M1161 0L856 0L856 653Q856 774 815.5 834.5Q775 895 688 895Q571 895 518 809Q465 723 465 526L465 0L160 0L160 1118L393 1118L434 975L451 975Q496 1052 581 1095.5Q666 1139 776 1139Q1027 1139 1116 975L1143 975Q1188 1053 1275.5 1096Q1363 1139 1473 1139Q1663 1139 1760.5 1041.5Q1858 944 1858 729L1858 0L1552 0L1552 653Q1552 774 1511.5 834.5Q1471 895 1384 895Q1272 895 1216.5 815Q1161 735 1161 561Z"/></g><g transform="translate(17944.6 2048) scale (1 -1)"><path d="M952 0L911 143L895 143Q846 65 756 22.5Q666 -20 551 -20Q354 -20 254 85.5Q154 191 154 389L154 1118L459 1118L459 465Q459 344 502 283.5Q545 223 639 223Q767 223 824 308.5Q881 394 881 592L881 1118L1186 1118L1186 0ZM920 1479Q920 1371 849 1305Q778 1239 666 1239Q554 1239 486 1303Q418 1367 418 1477Q418 1585 485.5 1649.5Q553 1714 666 1714Q776 1714 848 1648Q920 1582 920 1479ZM762 1477Q762 1522 735 1547.5Q708 1573 666 1573Q624 1573 597 1547.5Q570 1522 570 1477Q570 1432 594 1406Q618 1380 666 1380Q708 1380 735 1406Q762 1432 762 1477Z"/></g></g></g><g transform="translate(-510,103)"><rect x="0" y="0" width="80" height="35" border="1" rx="10" ry="10" style="fill:#E0E0E0;stroke:#707070;stroke-width:1px;"/><g transform="translate (6 6) scale(0.00732421875)" style="fill:#4F4F4F;"><g transform="translate(9.133333333333212 2048) scale (1 -1)"><path d="M1608 0L1255 0L1057 768Q1046 809 1019.5 937.5Q993 1066 989 1110Q983 1056 959 936.5Q935 817 922 766L725 0L373 0L0 1462L305 1462L492 664Q541 443 563 281Q569 338 590.5 457.5Q612 577 631 643L844 1462L1137 1462L1350 643Q1364 588 1385 475Q1406 362 1417 281Q1427 359 1449 475.5Q1471 592 1489 664L1675 1462L1980 1462Z"/></g><g transform="translate(1989.1333333333332 2048) scale (1 -1)"><path d="M147 1407Q147 1556 313 1556Q479 1556 479 1407Q479 1336 437.5 1296.5Q396 1257 313 1257Q147 1257 147 1407ZM465 0L160 0L160 1118L465 1118Z"/></g><g transform="translate(2614.133333333333 2048) scale (1 -1)"><path d="M1192 0L887 0L887 653Q887 774 844 834.5Q801 895 707 895Q579 895 522 809.5Q465 724 465 526L465 0L160 0L160 1118L393 1118L434 975L451 975Q502 1056 591.5 1097.5Q681 1139 795 1139Q990 1139 1091 1033.5Q1192 928 1192 729Z"/></g><g transform="translate(3960.133333333333 2048) scale (1 -1)"><path d="M514 -20Q317 -20 204.5 133Q92 286 92 557Q92 832 206.5 985.5Q321 1139 522 1139Q733 1139 844 975L854 975Q831 1100 831 1198L831 1556L1137 1556L1137 0L903 0L844 145L831 145Q727 -20 514 -20ZM621 223Q738 223 792.5 291Q847 359 852 522L852 555Q852 735 796.5 813Q741 891 616 891Q514 891 457.5 804.5Q401 718 401 553Q401 388 458 305.5Q515 223 621 223Z"/></g><g transform="translate(5256.133333333333 2048) scale (1 -1)"><path d="M403 561Q403 395 457.5 310Q512 225 635 225Q757 225 810.5 309.5Q864 394 864 561Q864 727 810 810Q756 893 633 893Q511 893 457 810.5Q403 728 403 561ZM1176 561Q1176 288 1032 134Q888 -20 631 -20Q470 -20 347 50.5Q224 121 158 253Q92 385 92 561Q92 835 235 987Q378 1139 637 1139Q798 1139 921 1069Q1044 999 1110 868Q1176 737 1176 561Z"/></g><g transform="translate(6524.133333333333 2048) scale (1 -1)"><path d="M1079 0L993 391L879 885L870 885L666 0L338 0L20 1118L324 1118L453 623Q475 535 514 256L522 256Q526 332 557 497L573 582L711 1118L1047 1118L1178 582Q1190 527 1207.5 420.5Q1225 314 1227 256L1235 256Q1246 345 1266 458.5Q1286 572 1300 623L1434 1118L1733 1118L1411 0Z"/></g><g transform="translate(8277.133333333333 2048) scale (1 -1)"><path d="M940 332Q940 160 820.5 70Q701 -20 463 -20Q341 -20 255 -3.5Q169 13 94 45L94 297Q179 257 285.5 230Q392 203 473 203Q639 203 639 299Q639 335 617 357.5Q595 380 541 408.5Q487 437 397 475Q268 529 207.5 575Q147 621 119.5 680.5Q92 740 92 827Q92 976 207.5 1057.5Q323 1139 535 1139Q737 1139 928 1051L836 831Q752 867 679 890Q606 913 530 913Q395 913 395 840Q395 799 438.5 769Q482 739 629 680Q760 627 821 581Q882 535 911 475Q940 415 940 332Z"/></g></g></g><g transform="translate(-547,158)"><rect x="0" y="0" width="117" height="30" border="1" rx="10" ry="10" style="fill:#E0E0E0;stroke:#707070;stroke-width:1px;"/><g transform="translate (6 6) scale(0.005859375)" style="fill:#4F4F4F;"><g transform="translate(48 2048) scale (1 -1)"><path d="M870 0L811 152L803 152Q726 55 644.5 17.5Q563 -20 432 -20Q271 -20 178.5 72Q86 164 86 334Q86 512 210.5 596.5Q335 681 586 690L780 696L780 745Q780 915 606 915Q472 915 291 834L190 1040Q383 1141 618 1141Q843 1141 963 1043Q1083 945 1083 745L1083 0ZM780 518L662 514Q529 510 464 466Q399 422 399 332Q399 203 547 203Q653 203 716.5 264Q780 325 780 426Z"/></g><g transform="translate(1285 2048) scale (1 -1)"><path d="M514 -20Q317 -20 204.5 133Q92 286 92 557Q92 832 206.5 985.5Q321 1139 522 1139Q733 1139 844 975L854 975Q831 1100 831 1198L831 1556L1137 1556L1137 0L903 0L844 145L831 145Q727 -20 514 -20ZM621 223Q738 223 792.5 291Q847 359 852 522L852 555Q852 735 796.5 813Q741 891 616 891Q514 891 457.5 804.5Q401 718 401 553Q401 388 458 305.5Q515 223 621 223Z"/></g><g transform="translate(2581 2048) scale (1 -1)"><path d="M403 561Q403 395 457.5 310Q512 225 635 225Q757 225 810.5 309.5Q864 394 864 561Q864 727 810 810Q756 893 633 893Q511 893 457 810.5Q403 728 403 561ZM1176 561Q1176 288 1032 134Q888 -20 631 -20Q470 -20 347 50.5Q224 121 158 253Q92 385 92 561Q92 835 235 987Q378 1139 637 1139Q798 1139 921 1069Q1044 999 1110 868Q1176 737 1176 561Z"/></g><g transform="translate(3849 2048) scale (1 -1)"><path d="M782 1139Q980 1139 1092 984.5Q1204 830 1204 561Q1204 284 1088.5 132Q973 -20 774 -20Q577 -20 465 123L444 123L393 0L160 0L160 1556L465 1556L465 1194Q465 1125 453 973L465 973Q572 1139 782 1139ZM684 895Q571 895 519 825.5Q467 756 465 596L465 563Q465 383 518.5 305Q572 227 688 227Q782 227 837.5 313.5Q893 400 893 565Q893 730 837 812.5Q781 895 684 895Z"/></g><g transform="translate(5145 2048) scale (1 -1)"><path d="M623 922Q526 922 471 860.5Q416 799 408 686L836 686Q834 799 777 860.5Q720 922 623 922ZM666 -20Q396 -20 244 129Q92 278 92 551Q92 832 232.5 985.5Q373 1139 621 1139Q858 1139 990 1004Q1122 869 1122 631L1122 483L401 483Q406 353 478 280Q550 207 680 207Q781 207 871 228Q961 249 1059 295L1059 59Q979 19 888 -0.5Q797 -20 666 -20Z"/></g><g transform="translate(6887 2048) scale (1 -1)"><path d="M494 774L596 774Q739 774 810 830.5Q881 887 881 995Q881 1104 821.5 1156Q762 1208 635 1208L494 1208ZM1194 1006Q1194 770 1046.5 645Q899 520 627 520L494 520L494 0L184 0L184 1462L651 1462Q917 1462 1055.5 1347.5Q1194 1233 1194 1006Z"/></g><g transform="translate(8173 2048) scale (1 -1)"><path d="M1192 0L887 0L887 653Q887 895 707 895Q579 895 522 808Q465 721 465 526L465 0L160 0L160 1556L465 1556L465 1239Q465 1202 458 1065L451 975L467 975Q569 1139 791 1139Q988 1139 1090 1033Q1192 927 1192 729Z"/></g><g transform="translate(9519 2048) scale (1 -1)"><path d="M403 561Q403 395 457.5 310Q512 225 635 225Q757 225 810.5 309.5Q864 394 864 561Q864 727 810 810Q756 893 633 893Q511 893 457 810.5Q403 728 403 561ZM1176 561Q1176 288 1032 134Q888 -20 631 -20Q470 -20 347 50.5Q224 121 158 253Q92 385 92 561Q92 835 235 987Q378 1139 637 1139Q798 1139 921 1069Q1044 999 1110 868Q1176 737 1176 561Z"/></g><g transform="translate(10787 2048) scale (1 -1)"><path d="M631 223Q711 223 823 258L823 31Q709 -20 543 -20Q360 -20 276.5 72.5Q193 165 193 350L193 889L47 889L47 1018L215 1120L303 1356L498 1356L498 1118L811 1118L811 889L498 889L498 350Q498 285 534.5 254Q571 223 631 223Z"/></g><g transform="translate(11676 2048) scale (1 -1)"><path d="M403 561Q403 395 457.5 310Q512 225 635 225Q757 225 810.5 309.5Q864 394 864 561Q864 727 810 810Q756 893 633 893Q511 893 457 810.5Q403 728 403 561ZM1176 561Q1176 288 1032 134Q888 -20 631 -20Q470 -20 347 50.5Q224 121 158 253Q92 385 92 561Q92 835 235 987Q378 1139 637 1139Q798 1139 921 1069Q1044 999 1110 868Q1176 737 1176 561Z"/></g><g transform="translate(12944 2048) scale (1 -1)"><path d="M940 332Q940 160 820.5 70Q701 -20 463 -20Q341 -20 255 -3.5Q169 13 94 45L94 297Q179 257 285.5 230Q392 203 473 203Q639 203 639 299Q639 335 617 357.5Q595 380 541 408.5Q487 437 397 475Q268 529 207.5 575Q147 621 119.5 680.5Q92 740 92 827Q92 976 207.5 1057.5Q323 1139 535 1139Q737 1139 928 1051L836 831Q752 867 679 890Q606 913 530 913Q395 913 395 840Q395 799 438.5 769Q482 739 629 680Q760 627 821 581Q882 535 911 475Q940 415 940 332Z"/></g><g transform="translate(13962 2048) scale (1 -1)"><path d="M1192 0L887 0L887 653Q887 895 707 895Q579 895 522 808Q465 721 465 526L465 0L160 0L160 1556L465 1556L465 1239Q465 1202 458 1065L451 975L467 975Q569 1139 791 1139Q988 1139 1090 1033Q1192 927 1192 729Z"/></g><g transform="translate(15308 2048) scale (1 -1)"><path d="M403 561Q403 395 457.5 310Q512 225 635 225Q757 225 810.5 309.5Q864 394 864 561Q864 727 810 810Q756 893 633 893Q511 893 457 810.5Q403 728 403 561ZM1176 561Q1176 288 1032 134Q888 -20 631 -20Q470 -20 347 50.5Q224 121 158 253Q92 385 92 561Q92 835 235 987Q378 1139 637 1139Q798 1139 921 1069Q1044 999 1110 868Q1176 737 1176 561Z"/></g><g transform="translate(16576 2048) scale (1 -1)"><path d="M774 -20Q577 -20 465 123L449 123Q465 -17 465 -39L465 -492L160 -492L160 1118L408 1118L451 973L465 973Q572 1139 782 1139Q980 1139 1092 986Q1204 833 1204 561Q1204 382 1151.5 250Q1099 118 1002 49Q905 -20 774 -20ZM684 895Q571 895 519 825.5Q467 756 465 596L465 563Q465 383 518.5 305Q572 227 688 227Q893 227 893 565Q893 730 842.5 812.5Q792 895 684 895Z"/></g></g></g><g transform="translate(-533,208)"><rect x="0" y="0" width="103" height="30" border="1" rx="10" ry="10" style="fill:#E0E0E0;stroke:#707070;stroke-width:1px;"/><g transform="translate (6 6) scale(0.005859375)" style="fill:#4F4F4F;"><g transform="translate(25.33333333333303 2048) scale (1 -1)"><path d="M739 821L1319 821L1319 63Q1178 17 1053.5 -1.5Q929 -20 799 -20Q468 -20 293.5 174.5Q119 369 119 733Q119 1087 321.5 1285Q524 1483 883 1483Q1108 1483 1317 1393L1214 1145Q1054 1225 881 1225Q680 1225 559 1090Q438 955 438 727Q438 489 535.5 363.5Q633 238 819 238Q916 238 1016 258L1016 563L739 563Z"/></g><g transform="translate(1508.333333333333 2048) scale (1 -1)"><path d="M403 561Q403 395 457.5 310Q512 225 635 225Q757 225 810.5 309.5Q864 394 864 561Q864 727 810 810Q756 893 633 893Q511 893 457 810.5Q403 728 403 561ZM1176 561Q1176 288 1032 134Q888 -20 631 -20Q470 -20 347 50.5Q224 121 158 253Q92 385 92 561Q92 835 235 987Q378 1139 637 1139Q798 1139 921 1069Q1044 999 1110 868Q1176 737 1176 561Z"/></g><g transform="translate(2776.333333333333 2048) scale (1 -1)"><path d="M403 561Q403 395 457.5 310Q512 225 635 225Q757 225 810.5 309.5Q864 394 864 561Q864 727 810 810Q756 893 633 893Q511 893 457 810.5Q403 728 403 561ZM1176 561Q1176 288 1032 134Q888 -20 631 -20Q470 -20 347 50.5Q224 121 158 253Q92 385 92 561Q92 835 235 987Q378 1139 637 1139Q798 1139 921 1069Q1044 999 1110 868Q1176 737 1176 561Z"/></g><g transform="translate(4044.333333333333 2048) scale (1 -1)"><path d="M623 219Q746 219 799 289.5Q852 360 852 518L852 555Q852 734 796.5 812.5Q741 891 618 891Q403 891 403 553Q403 385 456.5 302Q510 219 623 219ZM1137 -2Q1137 -243 996.5 -367.5Q856 -492 578 -492Q333 -492 160 -426L160 -182Q363 -268 596 -268Q831 -268 831 -14L831 8L840 145L831 145Q724 -20 514 -20Q313 -20 202.5 135Q92 290 92 557Q92 832 206.5 985.5Q321 1139 522 1139Q728 1139 846 975L854 975L879 1118L1137 1118Z"/></g><g transform="translate(5340.333333333333 2048) scale (1 -1)"><path d="M465 0L160 0L160 1556L465 1556Z"/></g><g transform="translate(5965.333333333333 2048) scale (1 -1)"><path d="M623 922Q526 922 471 860.5Q416 799 408 686L836 686Q834 799 777 860.5Q720 922 623 922ZM666 -20Q396 -20 244 129Q92 278 92 551Q92 832 232.5 985.5Q373 1139 621 1139Q858 1139 990 1004Q1122 869 1122 631L1122 483L401 483Q406 353 478 280Q550 207 680 207Q781 207 871 228Q961 249 1059 295L1059 59Q979 19 888 -0.5Q797 -20 666 -20Z"/></g><g transform="translate(7707.333333333333 2048) scale (1 -1)"><path d="M614 -20Q92 -20 92 553Q92 838 234 988.5Q376 1139 641 1139Q835 1139 989 1063L899 827Q827 856 765 874.5Q703 893 641 893Q403 893 403 555Q403 227 641 227Q729 227 804 250.5Q879 274 954 324L954 63Q880 16 804.5 -2Q729 -20 614 -20Z"/></g><g transform="translate(8760.333333333332 2048) scale (1 -1)"><path d="M1192 0L887 0L887 653Q887 895 707 895Q579 895 522 808Q465 721 465 526L465 0L160 0L160 1556L465 1556L465 1239Q465 1202 458 1065L451 975L467 975Q569 1139 791 1139Q988 1139 1090 1033Q1192 927 1192 729Z"/></g><g transform="translate(10106.333333333332 2048) scale (1 -1)"><path d="M784 1139Q846 1139 887 1130L864 844Q827 854 774 854Q628 854 546.5 779Q465 704 465 569L465 0L160 0L160 1118L391 1118L436 930L451 930Q503 1024 591.5 1081.5Q680 1139 784 1139Z"/></g><g transform="translate(11036.333333333332 2048) scale (1 -1)"><path d="M403 561Q403 395 457.5 310Q512 225 635 225Q757 225 810.5 309.5Q864 394 864 561Q864 727 810 810Q756 893 633 893Q511 893 457 810.5Q403 728 403 561ZM1176 561Q1176 288 1032 134Q888 -20 631 -20Q470 -20 347 50.5Q224 121 158 253Q92 385 92 561Q92 835 235 987Q378 1139 637 1139Q798 1139 921 1069Q1044 999 1110 868Q1176 737 1176 561Z"/></g><g transform="translate(12304.333333333332 2048) scale (1 -1)"><path d="M1161 0L856 0L856 653Q856 774 815.5 834.5Q775 895 688 895Q571 895 518 809Q465 723 465 526L465 0L160 0L160 1118L393 1118L434 975L451 975Q496 1052 581 1095.5Q666 1139 776 1139Q1027 1139 1116 975L1143 975Q1188 1053 1275.5 1096Q1363 1139 1473 1139Q1663 1139 1760.5 1041.5Q1858 944 1858 729L1858 0L1552 0L1552 653Q1552 774 1511.5 834.5Q1471 895 1384 895Q1272 895 1216.5 815Q1161 735 1161 561Z"/></g><g transform="translate(14315.333333333332 2048) scale (1 -1)"><path d="M623 922Q526 922 471 860.5Q416 799 408 686L836 686Q834 799 777 860.5Q720 922 623 922ZM666 -20Q396 -20 244 129Q92 278 92 551Q92 832 232.5 985.5Q373 1139 621 1139Q858 1139 990 1004Q1122 869 1122 631L1122 483L401 483Q406 353 478 280Q550 207 680 207Q781 207 871 228Q961 249 1059 295L1059 59Q979 19 888 -0.5Q797 -20 666 -20Z"/></g></g></g><g transform="translate(377,182)"><rect x="0" y="0" width="153" height="35" border="1" rx="10" ry="10" style="fill:#0000FF;stroke:#707070;stroke-width:1px;"/><g transform="translate (6 6) scale(0.00732421875)" style="fill:#FFFF00;"><g transform="translate(0.6000000000003638 2048) scale (1 -1)"><path d="M774 -20Q577 -20 465 123L449 123Q465 -17 465 -39L465 -492L160 -492L160 1118L408 1118L451 973L465 973Q572 1139 782 1139Q980 1139 1092 986Q1204 833 1204 561Q1204 382 1151.5 250Q1099 118 1002 49Q905 -20 774 -20ZM684 895Q571 895 519 825.5Q467 756 465 596L465 563Q465 383 518.5 305Q572 227 688 227Q893 227 893 565Q893 730 842.5 812.5Q792 895 684 895Z"/></g><g transform="translate(1296.6000000000004 2048) scale (1 -1)"><path d="M784 1139Q846 1139 887 1130L864 844Q827 854 774 854Q628 854 546.5 779Q465 704 465 569L465 0L160 0L160 1118L391 1118L436 930L451 930Q503 1024 591.5 1081.5Q680 1139 784 1139ZM952 1569L952 1542Q868 1458 797.5 1374.5Q727 1291 696 1241L339 1241Q310 1288 256 1353.5Q202 1419 83 1542L83 1569L286 1569Q433 1476 515 1393Q599 1480 749 1569Z"/></g><g transform="translate(2226.6000000000004 2048) scale (1 -1)"><path d="M465 0L160 0L160 1118L465 1118ZM145 1241L145 1268Q317 1468 380 1569L722 1569L722 1548Q670 1496 544.5 1393.5Q419 1291 348 1241Z"/></g><g transform="translate(2851.6000000000004 2048) scale (1 -1)"><path d="M453 608L586 778L899 1118L1243 1118L799 633L1270 0L918 0L596 453L465 348L465 0L160 0L160 1556L465 1556L465 862L449 608Z"/></g><g transform="translate(4121.6 2048) scale (1 -1)"><path d="M465 0L160 0L160 1556L465 1556Z"/></g><g transform="translate(4746.6 2048) scale (1 -1)"><path d="M870 0L811 152L803 152Q726 55 644.5 17.5Q563 -20 432 -20Q271 -20 178.5 72Q86 164 86 334Q86 512 210.5 596.5Q335 681 586 690L780 696L780 745Q780 915 606 915Q472 915 291 834L190 1040Q383 1141 618 1141Q843 1141 963 1043Q1083 945 1083 745L1083 0ZM780 518L662 514Q529 510 464 466Q399 422 399 332Q399 203 547 203Q653 203 716.5 264Q780 325 780 426Z"/></g><g transform="translate(5983.6 2048) scale (1 -1)"><path d="M514 -20Q317 -20 204.5 133Q92 286 92 557Q92 832 206.5 985.5Q321 1139 522 1139Q733 1139 844 975L854 975Q831 1100 831 1198L831 1556L1137 1556L1137 0L903 0L844 145L831 145Q727 -20 514 -20ZM621 223Q738 223 792.5 291Q847 359 852 522L852 555Q852 735 796.5 813Q741 891 616 891Q514 891 457.5 804.5Q401 718 401 553Q401 388 458 305.5Q515 223 621 223Z"/></g><g transform="translate(7279.6 2048) scale (1 -1)"><path d="M0 1118L334 1118L545 489Q572 407 582 295L588 295Q599 398 631 489L838 1118L1165 1118L692 -143Q627 -318 506.5 -405Q386 -492 225 -492Q146 -492 70 -475L70 -233Q125 -246 190 -246Q271 -246 331.5 -196.5Q392 -147 426 -47L444 8Z"/></g><g transform="translate(8976.6 2048) scale (1 -1)"><path d="M774 -20Q577 -20 465 123L449 123Q465 -17 465 -39L465 -492L160 -492L160 1118L408 1118L451 973L465 973Q572 1139 782 1139Q980 1139 1092 986Q1204 833 1204 561Q1204 382 1151.5 250Q1099 118 1002 49Q905 -20 774 -20ZM684 895Q571 895 519 825.5Q467 756 465 596L465 563Q465 383 518.5 305Q572 227 688 227Q893 227 893 565Q893 730 842.5 812.5Q792 895 684 895Z"/></g><g transform="translate(10272.6 2048) scale (1 -1)"><path d="M784 1139Q846 1139 887 1130L864 844Q827 854 774 854Q628 854 546.5 779Q465 704 465 569L465 0L160 0L160 1118L391 1118L436 930L451 930Q503 1024 591.5 1081.5Q680 1139 784 1139Z"/></g><g transform="translate(11202.6 2048) scale (1 -1)"><path d="M403 561Q403 395 457.5 310Q512 225 635 225Q757 225 810.5 309.5Q864 394 864 561Q864 727 810 810Q756 893 633 893Q511 893 457 810.5Q403 728 403 561ZM1176 561Q1176 288 1032 134Q888 -20 631 -20Q470 -20 347 50.5Q224 121 158 253Q92 385 92 561Q92 835 235 987Q378 1139 637 1139Q798 1139 921 1069Q1044 999 1110 868Q1176 737 1176 561Z"/></g><g transform="translate(12470.6 2048) scale (1 -1)"><path d="M623 219Q746 219 799 289.5Q852 360 852 518L852 555Q852 734 796.5 812.5Q741 891 618 891Q403 891 403 553Q403 385 456.5 302Q510 219 623 219ZM1137 -2Q1137 -243 996.5 -367.5Q856 -492 578 -492Q333 -492 160 -426L160 -182Q363 -268 596 -268Q831 -268 831 -14L831 8L840 145L831 145Q724 -20 514 -20Q313 -20 202.5 135Q92 290 92 557Q92 832 206.5 985.5Q321 1139 522 1139Q728 1139 846 975L854 975L879 1118L1137 1118Z"/></g><g transform="translate(13766.6 2048) scale (1 -1)"><path d="M784 1139Q846 1139 887 1130L864 844Q827 854 774 854Q628 854 546.5 779Q465 704 465 569L465 0L160 0L160 1118L391 1118L436 930L451 930Q503 1024 591.5 1081.5Q680 1139 784 1139Z"/></g><g transform="translate(14696.6 2048) scale (1 -1)"><path d="M870 0L811 152L803 152Q726 55 644.5 17.5Q563 -20 432 -20Q271 -20 178.5 72Q86 164 86 334Q86 512 210.5 596.5Q335 681 586 690L780 696L780 745Q780 915 606 915Q472 915 291 834L190 1040Q383 1141 618 1141Q843 1141 963 1043Q1083 945 1083 745L1083 0ZM780 518L662 514Q529 510 464 466Q399 422 399 332Q399 203 547 203Q653 203 716.5 264Q780 325 780 426Z"/></g><g transform="translate(15933.6 2048) scale (1 -1)"><path d="M1161 0L856 0L856 653Q856 774 815.5 834.5Q775 895 688 895Q571 895 518 809Q465 723 465 526L465 0L160 0L160 1118L393 1118L434 975L451 975Q496 1052 581 1095.5Q666 1139 776 1139Q1027 1139 1116 975L1143 975Q1188 1053 1275.5 1096Q1363 1139 1473 1139Q1663 1139 1760.5 1041.5Q1858 944 1858 729L1858 0L1552 0L1552 653Q1552 774 1511.5 834.5Q1471 895 1384 895Q1272 895 1216.5 815Q1161 735 1161 561Z"/></g><g transform="translate(17944.6 2048) scale (1 -1)"><path d="M952 0L911 143L895 143Q846 65 756 22.5Q666 -20 551 -20Q354 -20 254 85.5Q154 191 154 389L154 1118L459 1118L459 465Q459 344 502 283.5Q545 223 639 223Q767 223 824 308.5Q881 394 881 592L881 1118L1186 1118L1186 0ZM920 1479Q920 1371 849 1305Q778 1239 666 1239Q554 1239 486 1303Q418 1367 418 1477Q418 1585 485.5 1649.5Q553 1714 666 1714Q776 1714 848 1648Q920 1582 920 1479ZM762 1477Q762 1522 735 1547.5Q708 1573 666 1573Q624 1573 597 1547.5Q570 1522 570 1477Q570 1432 594 1406Q618 1380 666 1380Q708 1380 735 1406Q762 1432 762 1477Z"/></g></g></g><g transform="translate(550,132)"><rect x="0" y="0" width="60" height="35" border="1" rx="10" ry="10" style="fill:#E0E0E0;stroke:#707070;stroke-width:1px;"/><g transform="translate (6 6) scale(0.00732421875)" style="fill:#4F4F4F;"><g transform="translate(10.300000000000182 2048) scale (1 -1)"><path d="M184 0L184 1462L494 1462L494 256L1087 256L1087 0Z"/></g><g transform="translate(1167.3000000000002 2048) scale (1 -1)"><path d="M731 0L66 0L66 176L244 258L244 1204L66 1286L66 1462L731 1462L731 1286L553 1204L553 258L731 176Z"/></g><g transform="translate(1964.3000000000002 2048) scale (1 -1)"><path d="M1481 0L1087 0L451 1106L442 1106Q461 813 461 688L461 0L184 0L184 1462L575 1462L1210 367L1217 367Q1202 652 1202 770L1202 1462L1481 1462Z"/></g><g transform="translate(3629.3 2048) scale (1 -1)"><path d="M1374 1462L1374 516Q1374 354 1301.5 232Q1229 110 1092 45Q955 -20 768 -20Q486 -20 330 124.5Q174 269 174 520L174 1462L483 1462L483 567Q483 398 551 319Q619 240 776 240Q928 240 996.5 319.5Q1065 399 1065 569L1065 1462Z"/></g><g transform="translate(5177.3 2048) scale (1 -1)"><path d="M1366 0L1012 0L672 553L332 0L0 0L485 754L31 1462L373 1462L688 936L997 1462L1331 1462L872 737Z"/></g></g></g><g transform="translate(550,187)"><rect x="0" y="0" width="45" height="30" border="1" rx="10" ry="10" style="fill:#E0E0E0;stroke:#707070;stroke-width:1px;"/><g transform="translate (6 6) scale(0.005859375)" style="fill:#4F4F4F;"><g transform="translate(67.5 2048) scale (1 -1)"><path d="M739 821L1319 821L1319 63Q1178 17 1053.5 -1.5Q929 -20 799 -20Q468 -20 293.5 174.5Q119 369 119 733Q119 1087 321.5 1285Q524 1483 883 1483Q1108 1483 1317 1393L1214 1145Q1054 1225 881 1225Q680 1225 559 1090Q438 955 438 727Q438 489 535.5 363.5Q633 238 819 238Q916 238 1016 258L1016 563L739 563Z"/></g><g transform="translate(1550.5 2048) scale (1 -1)"><path d="M731 0L66 0L66 176L244 258L244 1204L66 1286L66 1462L731 1462L731 1286L553 1204L553 258L731 176Z"/></g><g transform="translate(2347.5 2048) scale (1 -1)"><path d="M803 0L451 1147L442 1147Q461 797 461 680L461 0L184 0L184 1462L606 1462L952 344L958 344L1325 1462L1747 1462L1747 0L1458 0L1458 692Q1458 741 1459.5 805Q1461 869 1473 1145L1464 1145L1087 0Z"/></g><g transform="translate(4278.5 2048) scale (1 -1)"><path d="M494 774L596 774Q739 774 810 830.5Q881 887 881 995Q881 1104 821.5 1156Q762 1208 635 1208L494 1208ZM1194 1006Q1194 770 1046.5 645Q899 520 627 520L494 520L494 0L184 0L184 1462L651 1462Q917 1462 1055.5 1347.5Q1194 1233 1194 1006Z"/></g></g></g><g transform="translate(550,237)"><rect x="0" y="0" width="54" height="30" border="1" rx="10" ry="10" style="fill:#E0E0E0;stroke:#707070;stroke-width:1px;"/><g transform="translate (6 6) scale(0.005859375)" style="fill:#4F4F4F;"><g transform="translate(37 2048) scale (1 -1)"><path d="M489 0L184 0L184 1462L1022 1462L1022 1208L489 1208L489 831L985 831L985 578L489 578Z"/></g><g transform="translate(1161 2048) scale (1 -1)"><path d="M147 1407Q147 1556 313 1556Q479 1556 479 1407Q479 1336 437.5 1296.5Q396 1257 313 1257Q147 1257 147 1407ZM465 0L160 0L160 1118L465 1118Z"/></g><g transform="translate(1786 2048) scale (1 -1)"><path d="M784 1139Q846 1139 887 1130L864 844Q827 854 774 854Q628 854 546.5 779Q465 704 465 569L465 0L160 0L160 1118L391 1118L436 930L451 930Q503 1024 591.5 1081.5Q680 1139 784 1139Z"/></g><g transform="translate(2716 2048) scale (1 -1)"><path d="M623 922Q526 922 471 860.5Q416 799 408 686L836 686Q834 799 777 860.5Q720 922 623 922ZM666 -20Q396 -20 244 129Q92 278 92 551Q92 832 232.5 985.5Q373 1139 621 1139Q858 1139 990 1004Q1122 869 1122 631L1122 483L401 483Q406 353 478 280Q550 207 680 207Q781 207 871 228Q961 249 1059 295L1059 59Q979 19 888 -0.5Q797 -20 666 -20Z"/></g><g transform="translate(3926 2048) scale (1 -1)"><path d="M778 889L514 889L514 0L209 0L209 889L41 889L41 1036L209 1118L209 1200Q209 1391 303 1479Q397 1567 604 1567Q762 1567 885 1520L807 1296Q715 1325 637 1325Q572 1325 543 1286.5Q514 1248 514 1188L514 1118L778 1118Z"/></g><g transform="translate(4719 2048) scale (1 -1)"><path d="M403 561Q403 395 457.5 310Q512 225 635 225Q757 225 810.5 309.5Q864 394 864 561Q864 727 810 810Q756 893 633 893Q511 893 457 810.5Q403 728 403 561ZM1176 561Q1176 288 1032 134Q888 -20 631 -20Q470 -20 347 50.5Q224 121 158 253Q92 385 92 561Q92 835 235 987Q378 1139 637 1139Q798 1139 921 1069Q1044 999 1110 868Q1176 737 1176 561Z"/></g><g transform="translate(5987 2048) scale (1 -1)"><path d="M389 571L29 1118L375 1118L592 762L811 1118L1157 1118L793 571L1174 0L827 0L592 383L356 0L10 0Z"/></g></g></g></g></svg>